<?xml version="1.0" encoding="utf-8"?>
<!-- Generator: Adobe Illustrator 19.2.0, SVG Export Plug-In . SVG Version: 6.00 Build 0)  -->
<svg version="1.1" id="Layer_1" xmlns="http://www.w3.org/2000/svg" xmlns:xlink="http://www.w3.org/1999/xlink" x="0px" y="0px"
	 viewBox="0 0 80 80" style="enable-background:new 0 0 80 80;" xml:space="preserve">
<style type="text/css">
	.st0{fill:#0E3080;}
</style>
<path class="st0" d="M40,24c-7.4,0-13.4,6-13.4,13.4s6,13.4,13.4,13.4s13.4-6,13.4-13.4S47.4,24,40,24z M40,48.9
	c-6.3,0-11.4-5.1-11.4-11.4C28.6,31.1,33.7,26,40,26s11.4,5.1,11.4,11.4S46.3,48.9,40,48.9z"/>
<path class="st0" d="M40.1,36.4L40.1,36.4c-1.3,0-2.4-1-2.4-2.3s1-2.3,2.3-2.3s2.3,1,2.3,2.3c0,0.6,0.4,1,1,1s1-0.4,1-1
	c0-2-1.4-3.6-3.2-4.1v-0.6c0-0.6-0.4-1-1-1s-1,0.4-1,1V30c-1.9,0.4-3.3,2.1-3.3,4.1c0,2.3,1.9,4.3,4.3,4.3h0.1c1.2,0,2.3,1,2.3,2.3
	s-1,2.3-2.3,2.3s-2.3-1-2.3-2.3c0-0.6-0.4-1-1-1s-1,0.4-1,1c0,2,1.4,3.6,3.2,4.1v0.6c0,0.6,0.4,1,1,1s1-0.4,1-1v-0.5
	c1.9-0.4,3.3-2.1,3.3-4.1C44.3,38.4,42.4,36.4,40.1,36.4z"/>
<path class="st0" d="M11.9,36.4h-0.1c-1,0-1.8-0.8-1.8-1.8s0.8-1.8,1.8-1.8s1.8,0.8,1.8,1.8c0,0.6,0.4,1,1,1s1-0.4,1-1
	c0-1.7-1.2-3.2-2.8-3.7v-0.4c0-0.6-0.4-1-1-1s-1,0.4-1,1v0.4c-1.7,0.4-2.9,1.9-2.9,3.7c0,2.1,1.7,3.8,3.8,3.8h0.1
	c1,0,1.8,0.8,1.8,1.8S12.8,42,11.8,42S10,41.3,10,40.3c0-0.6-0.4-1-1-1s-1,0.4-1,1c0,1.7,1.2,3.2,2.8,3.7v0.4c0,0.6,0.4,1,1,1
	s1-0.4,1-1V44c1.7-0.4,2.9-1.9,2.9-3.7C15.7,38.2,14,36.4,11.9,36.4z"/>
<path class="st0" d="M68.2,25.6c-1.5,0-2.9,0.3-4.2,0.8v-21c0-3-2.4-5.4-5.4-5.4H21.4c-3,0-5.4,2.4-5.4,5.4v21.1
	c-1.3-0.5-2.7-0.8-4.2-0.8C5.3,25.6,0,30.9,0,37.4s5.3,11.8,11.8,11.8c1.5,0,2.9-0.3,4.2-0.8v26.2c0,3,2.4,5.4,5.4,5.4h37.2
	c3,0,5.4-2.4,5.4-5.4V48.5c1.3,0.5,2.7,0.8,4.2,0.8C74.7,49.3,80,44,80,37.4S74.7,25.6,68.2,25.6z M21.4,2h37.2
	C60.5,2,62,3.5,62,5.4v3.7H18V5.4C18,3.5,19.5,2,21.4,2z M2,37.4c0-5.4,4.4-9.8,9.8-9.8s9.8,4.4,9.8,9.8s-4.4,9.8-9.8,9.8
	S2,42.9,2,37.4z M58.6,78H21.4c-1.9,0-3.4-1.5-3.4-3.4v-11h44v11C62,76.5,60.5,78,58.6,78z M62,61.6H18V47.5c3.3-2.1,5.6-5.8,5.6-10
	s-2.2-7.9-5.6-10V11.1h44v16.3c-3.3,2.1-5.6,5.8-5.6,10s2.2,7.9,5.6,10V61.6z M68.2,47.3c-5.4,0-9.8-4.4-9.8-9.8s4.4-9.8,9.8-9.8
	S78,32,78,37.4C78,42.9,73.6,47.3,68.2,47.3z"/>
<path class="st0" d="M68.2,36.4L68.2,36.4c-1.1,0-1.9-0.8-1.9-1.8s0.8-1.8,1.8-1.8s1.8,0.8,1.8,1.8c0,0.6,0.4,1,1,1s1-0.4,1-1
	c0-1.7-1.2-3.2-2.8-3.7v-0.4c0-0.6-0.4-1-1-1s-1,0.4-1,1v0.4c-1.7,0.4-2.9,1.9-2.9,3.7c0,2.1,1.7,3.8,3.8,3.8h0.1
	c1,0,1.8,0.8,1.8,1.8S69.1,42,68.1,42s-1.8-0.8-1.8-1.8c0-0.6-0.4-1-1-1s-1,0.4-1,1c0,1.7,1.2,3.2,2.8,3.7v0.4c0,0.6,0.4,1,1,1
	s1-0.4,1-1V44c1.7-0.4,2.9-1.9,2.9-3.7C72.1,38.2,70.4,36.4,68.2,36.4z"/>
<path class="st0" d="M40,66.3c-2.6,0-4.6,2.1-4.6,4.6s2.1,4.6,4.6,4.6s4.6-2.1,4.6-4.6S42.6,66.3,40,66.3z M40,73.6
	c-1.5,0-2.6-1.2-2.6-2.6s1.2-2.6,2.6-2.6s2.6,1.2,2.6,2.6S41.5,73.6,40,73.6z"/>
</svg>
