<?xml version="1.0" standalone="no"?>
<!DOCTYPE svg PUBLIC "-//W3C//DTD SVG 20010904//EN"
 "http://www.w3.org/TR/2001/REC-SVG-20010904/DTD/svg10.dtd">
<svg version="1.0" xmlns="http://www.w3.org/2000/svg"
 width="456.000000pt" height="456.000000pt" viewBox="0 0 456.000000 456.000000"
 preserveAspectRatio="xMidYMid meet">
<metadata>
Created by potrace 1.11, written by Peter Selinger 2001-2013
</metadata>
<g transform="translate(0.000000,456.000000) scale(0.100000,-0.100000)"
fill="#000000" stroke="none">
<path d="M2085 4378 c-51 -99 -131 -203 -225 -291 -74 -70 -188 -153 -245
-179 -14 -6 -25 -14 -25 -17 0 -3 95 -6 211 -6 116 0 215 -3 221 -6 12 -8 -44
-43 -92 -57 -71 -23 -100 -25 -350 -29 -140 -3 -256 -5 -256 -6 -1 -1 -5 -42
-8 -91 -4 -49 -8 -92 -11 -96 -2 -3 -6 -19 -9 -34 -12 -64 -41 -132 -88 -202
-27 -41 -52 -74 -56 -74 -4 -1 -24 -15 -45 -33 l-38 -33 258 2 c142 1 272 5
288 7 143 23 279 80 363 153 61 53 67 45 16 -23 -56 -76 -123 -132 -199 -168
-122 -58 -186 -64 -684 -65 -245 0 -446 -1 -447 -3 -1 -1 -5 -31 -9 -67 -32
-292 -266 -546 -571 -618 -43 -10 -79 -23 -81 -29 -12 -35 10 -36 810 -36 430
1 807 2 837 4 176 8 368 134 452 296 69 133 68 112 68 970 0 688 -2 773 -16
787 -8 9 -19 16 -23 16 -5 0 -25 -32 -46 -72z"/>
<path d="M2406 4434 c-14 -14 -16 -99 -16 -784 0 -516 4 -786 11 -822 31 -153
148 -308 286 -381 138 -72 103 -70 1021 -70 752 0 825 1 840 16 22 22 10 31
-63 46 -157 33 -314 128 -425 257 -84 98 -142 236 -155 369 -3 32 -7 60 -8 61
-1 2 -218 4 -482 6 -445 4 -485 6 -551 25 -127 36 -216 98 -297 207 -51 68
-46 75 15 22 87 -76 216 -130 368 -153 19 -3 149 -6 289 -7 248 -2 253 -2 230
16 -139 109 -210 253 -225 457 -4 48 -7 87 -8 88 -1 1 -108 3 -238 4 -159 1
-260 6 -305 15 -73 15 -156 53 -154 69 1 6 82 10 216 10 118 0 215 2 215 5 0
3 -24 18 -52 34 -102 57 -136 84 -249 196 -83 82 -183 220 -214 294 -17 40
-26 44 -49 20z"/>
<path d="M2133 2418 l-152 -151 149 -149 c82 -81 151 -148 153 -148 6 0 297
293 297 299 0 4 -66 73 -148 154 l-147 147 -152 -152z"/>
<path d="M19 2162 c-22 -15 -25 -38 -6 -39 35 -1 154 -36 211 -62 242 -110
407 -329 432 -576 l7 -65 436 -1 c240 -1 450 -2 466 -4 186 -16 318 -83 416
-213 27 -36 49 -69 49 -74 0 -6 -23 10 -50 35 -75 67 -206 127 -311 142 -24 3
-53 9 -64 12 -11 4 -137 7 -279 8 -256 2 -259 2 -235 -17 140 -111 209 -250
225 -458 3 -47 7 -86 8 -87 0 0 120 -3 266 -6 213 -3 276 -8 320 -22 65 -20
126 -55 112 -64 -6 -3 -105 -6 -221 -5 -116 0 -211 -2 -211 -5 0 -3 24 -19 53
-35 181 -101 378 -309 458 -483 21 -47 30 -51 53 -27 14 14 16 99 16 787 0
653 -3 782 -15 836 -47 197 -212 363 -415 416 -59 16 -146 18 -884 19 -659 1
-822 -2 -837 -12z"/>
<path d="M2910 2169 c-242 -22 -434 -182 -501 -416 -17 -62 -19 -112 -19 -844
0 -696 1 -779 16 -793 23 -24 32 -20 53 27 85 185 275 378 506 512 12 7 -48
10 -201 11 -131 0 -221 4 -223 9 -6 16 78 53 152 69 45 9 146 14 304 15 131 1
238 3 239 4 1 1 4 39 8 85 11 151 56 280 129 367 23 28 48 55 57 61 73 55 90
51 -207 49 -148 -1 -274 -4 -279 -7 -5 -4 -30 -9 -54 -13 -104 -15 -230 -73
-308 -141 -28 -25 -52 -43 -52 -40 0 17 56 92 105 140 34 35 81 68 127 90 122
58 184 64 687 65 245 1 446 3 448 5 2 2 5 27 8 57 12 162 94 324 223 443 97
90 233 160 357 187 73 15 85 24 63 46 -15 15 -86 16 -795 17 -428 1 -807 -2
-843 -5z"/>
</g>
</svg>
