<?xml version="1.0" encoding="UTF-8"?>
<svg width="600px" height="524px" viewBox="0 0 600 524" version="1.1" xmlns="http://www.w3.org/2000/svg" xmlns:xlink="http://www.w3.org/1999/xlink">
    <!-- Generator: Sketch 53 (72520) - https://sketchapp.com -->
    <title>v01-color</title>
    <desc>Created with Sketch.</desc>
    <defs>
        <radialGradient cx="110.229492%" cy="-23.2003348%" fx="110.229492%" fy="-23.2003348%" r="202.63179%" gradientTransform="translate(1.102295,-0.232003),scale(0.777778,1.000000),rotate(134.380056),translate(-1.102295,0.232003)" id="radialGradient-1">
            <stop stop-color="#E61739" offset="0%"></stop>
            <stop stop-color="#0D2F80" offset="100%"></stop>
        </radialGradient>
        <radialGradient cx="106.373132%" cy="23.8802083%" fx="106.373132%" fy="23.8802083%" r="238.026275%" gradientTransform="translate(1.063731,0.238802),scale(0.652174,1.000000),rotate(152.903701),translate(-1.063731,-0.238802)" id="radialGradient-2">
            <stop stop-color="#E61739" offset="0%"></stop>
            <stop stop-color="#0D2F80" offset="100%"></stop>
        </radialGradient>
        <radialGradient cx="110.229492%" cy="-23.2003348%" fx="110.229492%" fy="-23.2003348%" r="290.610446%" gradientTransform="translate(1.102295,-0.232003),scale(0.437500,1.000000),rotate(150.109444),translate(-1.102295,0.232003)" id="radialGradient-3">
            <stop stop-color="#E61739" offset="0%"></stop>
            <stop stop-color="#0D2F80" offset="100%"></stop>
        </radialGradient>
        <radialGradient cx="50%" cy="50%" fx="50%" fy="50%" r="98.004515%" gradientTransform="translate(0.500000,0.500000),scale(0.997667,1.000000),rotate(90.000000),translate(-0.500000,-0.500000)" id="radialGradient-4">
            <stop stop-color="#E61739" offset="0%"></stop>
            <stop stop-color="#800D7A" offset="100%"></stop>
        </radialGradient>
    </defs>
    <g id="v01-color" stroke="none" stroke-width="1" fill="none" fill-rule="evenodd">
        <g id="Group-3" transform="translate(72.000000, 45.476510)">
            <g id="Group-5-Copy-9" transform="translate(0.765101, 0.000000)">
                <g id="Group-4-Copy-4" transform="translate(345.296806, 104.053691) scale(-1, 1) translate(-345.296806, -104.053691) translate(236.652511, 0.000000)">
                    <path d="M216.417938,66.2680269 L131.732658,66.2680269 C176.230262,54.238191 200.660631,25.4783626 211.7132,0.401697901 C214.311555,0.401697901 216.417938,2.50808075 216.417938,5.10643568 L216.417938,66.2680269 Z" id="Fill-20" fill="url(#radialGradient-1)"></path>
                    <path d="M-7.10542736e-14,202.705423 C36.5396648,197.772619 65.866329,168.819801 65.866329,132.134356 L141.142133,132.134356 L216.417938,66.2680269 L216.417938,151.514185 C216.417938,182.380748 190.916491,207.41016 159.467808,207.41016 L4.70473778,207.41016 C2.10638285,207.41016 -7.07360669e-14,205.303777 -7.10542736e-14,202.705423 Z" id="Fill-22" fill="url(#radialGradient-2)"></path>
                    <path d="M131.81452,66.2680269 C131.81452,110.393145 109.55788,132.134356 65.866329,132.134356 L142.952225,132.134356 C183.522291,132.134356 216.417938,110.393145 216.417938,66.2680269 L131.81452,66.2680269 Z" id="Fill-24" fill="url(#radialGradient-3)"></path>
                </g>
                <g id="Group-4-Copy-3" transform="translate(2.286274, 0.000000)">
                    <path d="M216.417938,66.2680269 L131.732658,66.2680269 C176.230262,54.238191 200.660631,25.4783626 211.7132,0.401697901 C214.311555,0.401697901 216.417938,2.50808075 216.417938,5.10643568 L216.417938,66.2680269 Z" id="Fill-20" fill="url(#radialGradient-1)"></path>
                    <path d="M-4.40536496e-13,202.705423 C36.5396648,197.772619 65.866329,168.819801 65.866329,132.134356 L141.142133,132.134356 L216.417938,66.2680269 L216.417938,151.514185 C216.417938,182.380748 190.916491,207.41016 159.467808,207.41016 L4.70473778,207.41016 C2.10638285,207.41016 -4.40218289e-13,205.303777 -4.40536496e-13,202.705423 Z" id="Fill-22" fill="url(#radialGradient-2)"></path>
                    <path d="M131.81452,66.2680269 C131.81452,110.393145 109.55788,132.134356 65.866329,132.134356 L142.952225,132.134356 C183.522291,132.134356 216.417938,110.393145 216.417938,66.2680269 L131.81452,66.2680269 Z" id="Fill-24" fill="url(#radialGradient-3)"></path>
                </g>
                <g id="Group-2-Copy" transform="translate(227.471303, 328.782185) scale(-1, -1) translate(-227.471303, -328.782185) translate(1.001504, 224.728493)">
                    <g id="Group-4-Copy-3">
                        <path d="M216.417938,65.866329 L131.732658,65.866329 C176.230262,53.8364931 200.660631,25.0766647 211.7132,0 C214.311555,4.13829549e-15 216.417938,2.10638285 216.417938,4.70473778 L216.417938,65.866329 Z" id="Fill-20" fill="url(#radialGradient-1)"></path>
                        <path d="M0,202.303725 C36.5396648,197.370921 65.866329,168.418103 65.866329,131.732658 L141.142133,131.732658 L216.417938,65.866329 L216.417938,151.112487 C216.417938,181.97905 190.916491,207.008462 159.467808,207.008462 L4.70473778,207.008462 C2.10638285,207.008462 3.18206705e-16,204.90208 0,202.303725 Z" id="Fill-22" fill="url(#radialGradient-2)"></path>
                        <path d="M131.81452,65.866329 C131.81452,109.991447 109.55788,131.732658 65.866329,131.732658 L142.952225,131.732658 C183.522291,131.732658 216.417938,109.991447 216.417938,65.866329 L131.81452,65.866329 Z" id="Fill-24" fill="url(#radialGradient-3)"></path>
                    </g>
                    <g id="Group-4-Copy-4" transform="translate(343.010532, 104.053691) scale(-1, 1) translate(-343.010532, -104.053691) translate(234.366237, 0.000000)">
                        <path d="M216.417938,65.866329 L131.732658,65.866329 C176.230262,53.8364931 200.660631,25.0766647 211.7132,0 C214.311555,-4.77310057e-16 216.417938,2.10638285 216.417938,4.70473778 L216.417938,65.866329 Z" id="Fill-20" fill="url(#radialGradient-1)"></path>
                        <path d="M0,202.303725 C36.5396648,197.370921 65.866329,168.418103 65.866329,131.732658 L141.142133,131.732658 L216.417938,65.866329 L216.417938,151.112487 C216.417938,181.97905 190.916491,207.008462 159.467808,207.008462 L4.70473778,207.008462 C2.10638285,207.008462 3.18206705e-16,204.90208 0,202.303725 Z" id="Fill-22" fill="url(#radialGradient-2)"></path>
                        <path d="M131.81452,65.866329 C131.81452,109.991447 109.55788,131.732658 65.866329,131.732658 L142.952225,131.732658 C183.522291,131.732658 216.417938,109.991447 216.417938,65.866329 L131.81452,65.866329 Z" id="Fill-24" fill="url(#radialGradient-3)"></path>
                    </g>
                </g>
                <polygon id="Fill-26-Copy" fill="url(#radialGradient-4)" points="255.536823 216.528551 227.229826 244.759386 198.932976 216.528551 227.229826 188.287594"></polygon>
            </g>
        </g>
    </g>
</svg>