<?xml version="1.0" encoding="UTF-8"?>
<svg width="600px" height="524px" viewBox="0 0 600 524" version="1.1" xmlns="http://www.w3.org/2000/svg" xmlns:xlink="http://www.w3.org/1999/xlink">
    <!-- Generator: Sketch 53 (72520) - https://sketchapp.com -->
    <title>v01</title>
    <desc>Created with Sketch.</desc>
    <g id="v01" stroke="none" stroke-width="1" fill="none" fill-rule="evenodd">
        <path d="M76.7166853,272.205151 L231.849006,272.205151 C263.372035,272.205151 288.933572,297.289135 288.933572,328.230499 L288.933572,441.97866 L288.933572,474.988667 C288.933572,477.593708 286.824191,479.707616 284.219151,479.707616 C275.42629,459.756761 258.191377,437.483777 229.157961,423.114183 C260.640251,423.114183 274.788043,423.10178 274.788043,423.114183 L274.788043,421.901203 C274.788043,421.901203 267.52371,413.683075 241.910921,413.683075 L204.128296,413.683075 C204.128296,386.220379 195.527814,367.405694 178.523756,357.089642 L218.19461,357.089642 C246.659941,357.089642 265.356936,366.520749 274.788043,378.314726 L274.788043,375.95412 C263.000857,356.831628 248.355142,347.658535 218.19461,347.658535 L138.022277,347.658535 C138.022277,310.884686 108.626736,281.862586 72,276.919573 C72,274.316795 74.1116446,272.205151 76.7166853,272.205151 Z M288.933572,441.97866 C288.933572,438.715004 289.132742,435.833842 288.933572,433.328386 L288.933572,441.97866 Z M523.283315,272.205151 C525.888355,272.205151 528,274.316795 528,276.919573 C491.373264,281.862586 461.977723,310.884686 461.977723,347.658535 L381.80539,347.658535 C351.644858,347.658535 336.999143,356.831628 325.211957,375.95412 L325.211957,378.314726 C334.643064,366.520749 353.340059,357.089642 381.80539,357.089642 L421.476244,357.089642 C404.472186,367.405694 395.871704,386.220379 395.871704,413.683075 L358.089079,413.683075 C332.47629,413.683075 325.211957,421.901203 325.211957,421.901203 L325.211957,423.114183 C325.211957,423.10178 339.359749,423.114183 370.842039,423.114183 C341.808623,437.483777 324.57371,459.756761 315.780849,479.707616 C313.175809,479.707616 311.066428,477.593708 311.066428,474.988667 L311.066428,441.97866 L311.066428,328.230499 C311.066428,297.289135 336.627965,272.205151 368.150994,272.205151 L523.283315,272.205151 Z M311.066428,441.97866 C311.066428,438.715004 310.867258,435.833842 311.066428,433.328386 L311.066428,441.97866 Z M76.7166853,251.794849 C74.1116446,251.794849 72,249.683205 72,247.080427 C108.626736,242.137414 138.022277,213.115314 138.022277,176.341465 L218.19461,176.341465 C248.355142,176.341465 263.000857,167.168372 274.788043,148.04588 L274.788043,145.685274 C265.356936,157.479251 246.659941,166.910358 218.19461,166.910358 L178.523756,166.910358 C195.527814,156.594306 204.128296,137.779621 204.128296,110.316925 L241.910921,110.316925 C267.52371,110.316925 274.788043,102.098797 274.788043,102.098797 L274.788043,100.885817 C274.788043,100.89822 260.640251,100.885817 229.157961,100.885817 C258.191377,86.516223 275.42629,64.2432385 284.219151,44.2923842 C286.824191,44.2923842 288.933572,46.406292 288.933572,49.0113327 L288.933572,82.0213396 L288.933572,195.769501 C288.933572,226.710865 263.372035,251.794849 231.849006,251.794849 L76.7166853,251.794849 Z M288.933572,82.0213396 C288.933572,85.2849961 289.132742,88.1661575 288.933572,90.6716136 L288.933572,82.0213396 Z M523.283315,251.794849 L368.150994,251.794849 C336.627965,251.794849 311.066428,226.710865 311.066428,195.769501 L311.066428,82.0213396 L311.066428,49.0113327 C311.066428,46.406292 313.175809,44.2923842 315.780849,44.2923842 C324.57371,64.2432385 341.808623,86.516223 370.842039,100.885817 C339.359749,100.885817 325.211957,100.89822 325.211957,100.885817 L325.211957,102.098797 C325.211957,102.098797 332.47629,110.316925 358.089079,110.316925 L395.871704,110.316925 C395.871704,137.779621 404.472186,156.594306 421.476244,166.910358 L381.80539,166.910358 C353.340059,166.910358 334.643064,157.479251 325.211957,145.685274 L325.211957,148.04588 C336.999143,167.168372 351.644858,176.341465 381.80539,176.341465 L461.977723,176.341465 C461.977723,213.115314 491.373264,242.137414 528,247.080427 C528,249.683205 525.888355,251.794849 523.283315,251.794849 Z M311.066428,82.0213396 C311.066428,85.2849961 310.867258,88.1661575 311.066428,90.6716136 L311.066428,82.0213396 Z M270.194612,262.663004 L300.38939,232.455041 L330.595156,262.663004 L300.38939,292.857783 L270.194612,262.663004 Z" id="Combined-Shape" fill="#171B27"></path>
    </g>
</svg>