<?xml version="1.0" encoding="utf-8"?>
<!-- Generator: Adobe Illustrator 19.2.0, SVG Export Plug-In . SVG Version: 6.00 Build 0)  -->
<svg version="1.1" id="Layer_1" xmlns="http://www.w3.org/2000/svg" xmlns:xlink="http://www.w3.org/1999/xlink" x="0px" y="0px"
	 viewBox="0 0 665.8 134.8" style="enable-background:new 0 0 665.8 134.8;" xml:space="preserve">
<style type="text/css">
	.st0{fill:#FFFFFF;}
</style>
<title>v03-white</title>
<desc>Created with Sketch.</desc>
<g id="v03-white">
	<path id="Combined-Shape" class="st0" d="M1.5,70.6h48c9.8,0,17.7,7.8,17.7,17.3v35.2v10.2c0,0.8-0.7,1.5-1.5,1.5
		c-2.7-6.2-8.1-13.1-17-17.5c9.7,0,14.1,0,14.1,0v-0.4c0,0-2.2-2.5-10.2-2.5H40.9c0-8.5-2.7-14.3-7.9-17.5h12.3
		c8.8,0,14.6,2.9,17.5,6.6v-0.7c-3.6-5.9-8.2-8.8-17.5-8.8H20.4C20.4,82.5,11.3,73.5,0,72C0,71.2,0.7,70.6,1.5,70.6z M67.2,123.1
		c0-1,0.1-1.9,0-2.7V123.1z M139.7,70.6c0.8,0,1.5,0.7,1.5,1.5c-11.3,1.5-20.4,10.5-20.4,21.9H95.9c-9.3,0-13.9,2.8-17.5,8.8v0.7
		c2.9-3.7,8.7-6.6,17.5-6.6h12.3c-5.3,3.2-7.9,9-7.9,17.5H88.6c-7.9,0-10.2,2.5-10.2,2.5v0.4c0,0,4.4,0,14.1,0
		c-9,4.4-14.3,11.3-17,17.5c-0.8,0-1.5-0.7-1.5-1.5v-10.2V87.9c0-9.6,7.9-17.3,17.7-17.3H139.7z M74,123.1c0-1-0.1-1.9,0-2.7V123.1z
		 M1.5,64.2c-0.8,0-1.5-0.7-1.5-1.5c11.3-1.5,20.4-10.5,20.4-21.9h24.8c9.3,0,13.9-2.8,17.5-8.8v-0.7C59.9,35,54.1,38,45.3,38H33
		c5.3-3.2,7.9-9,7.9-17.5h11.7c7.9,0,10.2-2.5,10.2-2.5v-0.4c0,0-4.4,0-14.1,0c9-4.4,14.3-11.3,17-17.5c0.8,0,1.5,0.7,1.5,1.5v10.2
		v35.2c0,9.6-7.9,17.3-17.7,17.3H1.5z M67.2,11.7c0,1,0.1,1.9,0,2.7V11.7z M139.7,64.2h-48c-9.8,0-17.7-7.8-17.7-17.3V11.7V1.5
		C74,0.7,74.7,0,75.5,0c2.7,6.2,8.1,13.1,17,17.5c-9.7,0-14.1,0-14.1,0v0.4c0,0,2.2,2.5,10.2,2.5h11.7c0,8.5,2.7,14.3,7.9,17.5H95.9
		c-8.8,0-14.6-2.9-17.5-6.6v0.7c3.6,5.9,8.2,8.8,17.5,8.8h24.8c0,11.4,9.1,20.4,20.4,21.9C141.2,63.6,140.5,64.2,139.7,64.2z
		 M74,11.7c0,1-0.1,1.9,0,2.7V11.7z M61.4,67.6l9.3-9.4l9.4,9.4L70.7,77L61.4,67.6z M244.2,63.9c0,15.9-5,34.9-34.5,34.9H180V29
		h29.3C239,29,244.2,48.1,244.2,63.9z M228.8,63.2c0-12.3-2.9-21.6-21-21.6h-14V43v40.5v1.4h14.3C226.1,84.9,228.8,75.7,228.8,63.2z
		 M288.9,44.4v13h-4.3c-10.2,0-14.8,4.7-14.8,14.8v26.7h-14.4V45h14.4v7.2h0.2c3.1-4.9,8.4-7.8,15.8-7.8H288.9z M346.1,65.7v33.7
		h-14.4v-3.1h-0.2c-4.1,2.7-9.7,4-15.2,4c-10.7,0-24.6-3.9-24.6-17.8c0-16.4,22.6-18,36.4-18c0.4,0,2.9,0,3.5,0.1l-0.1-1.4
		c-0.3-4.6-4.5-6.9-11-6.9c-5.4,0-11.1,1.3-16,4.6l-8.9-8.9c7.4-5.2,15.8-7.5,25.1-7.5C335.3,44.4,346.1,50.8,346.1,65.7z
		 M332.2,76.6v-1.4c-0.5-0.1-1.5-0.1-1.9-0.1c-2.3,0-4.5,0-7.4,0.2c-2.8,0.1-5.8,0.3-8.4,0.9c-5.3,1.1-7.5,3-7.5,5.8
		c0,4,5.1,5.7,10.6,5.7c4.3,0,14.6-0.5,14.6-5.9V76.6z M397.6,45.2h14.2v49.1c0,15.2-9.3,24-27.4,24c-9.7,0-17.6-2.4-25.5-7.7
		l9.5-9.5c4.8,3.3,10.5,5.1,16,5.1c8.7,0,13.2-4.3,13.2-11.4v-2.9h-0.2c-3.3,2.5-8.5,4.1-13.9,4.1c-18.2,0-27.6-10.6-27.6-25.8
		c0-14.1,9.5-25.8,27.5-25.8c5.2,0,11.1,1.9,14,4.5h0.2V45.2z M399.2,69.7c0-8.4-4.7-14.2-14.7-14.2c-10.1,0-14.7,6-14.7,14.2
		c0,8.4,4.9,13.7,14.7,13.7C395.3,83.5,399.2,77.7,399.2,69.7z M478.8,72.3c0,15.6-9.7,27.9-28.6,27.9c-19.1,0-28.6-12.2-28.6-27.9
		s9.5-27.9,28.5-27.9C469.3,44.4,478.8,56.5,478.8,72.3z M464.8,72.3c0-9.1-4.5-15.3-14.7-15.3c-10.3,0-14.7,6.1-14.7,15.3
		c0,9.1,4.5,15.4,14.7,15.4C460.3,87.7,464.8,81.4,464.8,72.3z M541.6,72.3c0,15.6-9.7,27.9-28.6,27.9c-19.1,0-28.6-12.2-28.6-27.9
		s9.5-27.9,28.5-27.9C532.1,44.4,541.6,56.5,541.6,72.3z M527.6,72.3c0-9.1-4.5-15.3-14.7-15.3c-10.3,0-14.7,6.1-14.7,15.3
		c0,9.1,4.5,15.4,14.7,15.4C523.2,87.7,527.6,81.4,527.6,72.3z M604.4,65.6l-0.1,33.3h-14.4V66.9c0-6.5-1.6-10.3-12.1-10.3
		c-8,0-13.4,3.8-13.4,10.9v31.3H550V45.1h14.5v4.7h0.2c3.7-3.3,9.7-5.4,15.8-5.4C594.9,44.4,604.4,52.2,604.4,65.6z M665.8,83.1
		c0,9.2-8.1,17.1-24.8,17.1c-9.9,0-18.8-3.4-26.8-10.2l9.2-9.3c4.6,4.8,11.2,7.6,17.4,7.6c8.3,0,10.7-2.6,10.7-4.6
		c0-1.7-0.8-3.1-7-4.6c-1.2-0.3-8.5-2.2-9.7-2.5c-9.3-2.3-18.8-6.1-18.8-16c0-9.4,8.9-16.2,24.3-16.2c10.1,0,18.1,3,24.3,9l-8.9,8.8
		c-3.9-3.8-9.5-6.1-15.3-6.1c-8.1,0-10,2.7-10,4.3c0,2.2,2.9,3.1,9.5,4.7c1.1,0.3,7.5,2,8.7,2.3C659.9,70.3,665.8,75,665.8,83.1z"/>
</g>
</svg>
