<?xml version="1.0" encoding="UTF-8"?>
<svg width="756px" height="236px" viewBox="0 0 756 236" version="1.1" xmlns="http://www.w3.org/2000/svg" xmlns:xlink="http://www.w3.org/1999/xlink">
    <!-- Generator: Sketch 53 (72520) - https://sketchapp.com -->
    <title>v03-color</title>
    <desc>Created with Sketch.</desc>
    <defs>
        <radialGradient cx="110.229492%" cy="-23.2003348%" fx="110.229492%" fy="-23.2003348%" r="202.63179%" gradientTransform="translate(1.102295,-0.232003),scale(0.777778,1.000000),rotate(134.380056),translate(-1.102295,0.232003)" id="radialGradient-1">
            <stop stop-color="#E61739" offset="0%"></stop>
            <stop stop-color="#0D2F80" offset="100%"></stop>
        </radialGradient>
        <radialGradient cx="106.373132%" cy="23.8802083%" fx="106.373132%" fy="23.8802083%" r="238.026275%" gradientTransform="translate(1.063731,0.238802),scale(0.652174,1.000000),rotate(152.903701),translate(-1.063731,-0.238802)" id="radialGradient-2">
            <stop stop-color="#E61739" offset="0%"></stop>
            <stop stop-color="#0D2F80" offset="100%"></stop>
        </radialGradient>
        <radialGradient cx="110.229492%" cy="-23.2003348%" fx="110.229492%" fy="-23.2003348%" r="290.610446%" gradientTransform="translate(1.102295,-0.232003),scale(0.437500,1.000000),rotate(150.109444),translate(-1.102295,0.232003)" id="radialGradient-3">
            <stop stop-color="#E61739" offset="0%"></stop>
            <stop stop-color="#0D2F80" offset="100%"></stop>
        </radialGradient>
        <radialGradient cx="50%" cy="50%" fx="50%" fy="50%" r="167.120219%" id="radialGradient-4">
            <stop stop-color="#E61739" offset="0%"></stop>
            <stop stop-color="#940F6D" offset="100%"></stop>
            <stop stop-color="#800D7A" offset="100%"></stop>
        </radialGradient>
        <linearGradient x1="0%" y1="48.3088915%" x2="598.989304%" y2="73.4547733%" id="linearGradient-5">
            <stop stop-color="#BA1B47" offset="0%"></stop>
            <stop stop-color="#000000" offset="100%"></stop>
        </linearGradient>
    </defs>
    <g id="v03-color" stroke="none" stroke-width="1" fill="none" fill-rule="evenodd">
        <g id="Group-4" transform="translate(44.500000, 50.000000)">
            <g id="Group-5-Copy-10">
                <g id="Group-4-Copy-4" transform="translate(107.808721, 32.487689) scale(-1, 1) translate(-107.808721, -32.487689) translate(73.887751, 0.000000)">
                    <path d="M67.5701038,20.6902325 L41.1296284,20.6902325 C55.0226897,16.9342718 62.6503506,7.95486557 66.1011885,0.125418295 C66.912448,0.125418295 67.5701038,0.783074076 67.5701038,1.59433359 L67.5701038,20.6902325 Z" id="Fill-20" fill="url(#radialGradient-1)"></path>
                    <path d="M-7.10542736e-14,63.2887762 C11.4084302,61.748654 20.5648142,52.7089924 20.5648142,41.2550467 L44.067459,41.2550467 L67.5701038,20.6902325 L67.5701038,47.3058255 C67.5701038,56.9429974 59.6080307,64.7576915 49.7891093,64.7576915 L1.4689153,64.7576915 C0.657655781,64.7576915 -7.09549229e-14,64.1000357 -7.10542736e-14,63.2887762 Z" id="Fill-22" fill="url(#radialGradient-2)"></path>
                    <path d="M41.1551875,20.6902325 C41.1551875,34.4669962 34.2062094,41.2550467 20.5648142,41.2550467 L44.6326066,41.2550467 C57.2994105,41.2550467 67.5701038,34.4669962 67.5701038,20.6902325 L41.1551875,20.6902325 Z" id="Fill-24" fill="url(#radialGradient-3)"></path>
                </g>
                <g id="Group-4-Copy-3" transform="translate(0.713821, 0.000000)">
                    <path d="M67.5701038,20.6902325 L41.1296284,20.6902325 C55.0226897,16.9342718 62.6503506,7.95486557 66.1011885,0.125418295 C66.912448,0.125418295 67.5701038,0.783074076 67.5701038,1.59433359 L67.5701038,20.6902325 Z" id="Fill-20" fill="url(#radialGradient-1)"></path>
                    <path d="M-4.40536496e-13,63.2887762 C11.4084302,61.748654 20.5648142,52.7089924 20.5648142,41.2550467 L44.067459,41.2550467 L67.5701038,20.6902325 L67.5701038,47.3058255 C67.5701038,56.9429974 59.6080307,64.7576915 49.7891093,64.7576915 L1.4689153,64.7576915 C0.657655781,64.7576915 -4.40437146e-13,64.1000357 -4.40536496e-13,63.2887762 Z" id="Fill-22" fill="url(#radialGradient-2)"></path>
                    <path d="M41.1551875,20.6902325 C41.1551875,34.4669962 34.2062094,41.2550467 20.5648142,41.2550467 L44.6326066,41.2550467 C57.2994105,41.2550467 67.5701038,34.4669962 67.5701038,20.6902325 L41.1551875,20.6902325 Z" id="Fill-24" fill="url(#radialGradient-3)"></path>
                </g>
                <g id="Group-2-Copy" transform="translate(71.021190, 102.652518) scale(-1, -1) translate(-71.021190, -102.652518) translate(0.312690, 70.164829)">
                    <g id="Group-4-Copy-3">
                        <path d="M67.5701038,20.5648142 L41.1296284,20.5648142 C55.0226897,16.8088535 62.6503506,7.82944727 66.1011885,0 C66.912448,1.29206044e-15 67.5701038,0.657655781 67.5701038,1.4689153 L67.5701038,20.5648142 Z" id="Fill-20" fill="url(#radialGradient-1)"></path>
                        <path d="M0,63.1633579 C11.4084302,61.6232357 20.5648142,52.5835741 20.5648142,41.1296284 L44.067459,41.1296284 L67.5701038,20.5648142 L67.5701038,47.1804072 C67.5701038,56.8175791 59.6080307,64.6322732 49.7891093,64.6322732 L1.4689153,64.6322732 C0.657655781,64.6322732 9.93506373e-17,63.9746174 0,63.1633579 Z" id="Fill-22" fill="url(#radialGradient-2)"></path>
                        <path d="M41.1551875,20.5648142 C41.1551875,34.341578 34.2062094,41.1296284 20.5648142,41.1296284 L44.6326066,41.1296284 C57.2994105,41.1296284 67.5701038,34.341578 67.5701038,20.5648142 L41.1551875,20.5648142 Z" id="Fill-24" fill="url(#radialGradient-3)"></path>
                    </g>
                    <g id="Group-4-Copy-4" transform="translate(107.094899, 32.487689) scale(-1, 1) translate(-107.094899, -32.487689) translate(73.173929, 0.000000)">
                        <path d="M67.5701038,20.5648142 L41.1296284,20.5648142 C55.0226897,16.8088535 62.6503506,7.82944727 66.1011885,0 C66.912448,-1.49025956e-16 67.5701038,0.657655781 67.5701038,1.4689153 L67.5701038,20.5648142 Z" id="Fill-20" fill="url(#radialGradient-1)"></path>
                        <path d="M0,63.1633579 C11.4084302,61.6232357 20.5648142,52.5835741 20.5648142,41.1296284 L44.067459,41.1296284 L67.5701038,20.5648142 L67.5701038,47.1804072 C67.5701038,56.8175791 59.6080307,64.6322732 49.7891093,64.6322732 L1.4689153,64.6322732 C0.657655781,64.6322732 9.93506373e-17,63.9746174 0,63.1633579 Z" id="Fill-22" fill="url(#radialGradient-2)"></path>
                        <path d="M41.1551875,20.5648142 C41.1551875,34.341578 34.2062094,41.1296284 20.5648142,41.1296284 L44.6326066,41.1296284 C57.2994105,41.1296284 67.5701038,34.341578 67.5701038,20.5648142 L41.1551875,20.5648142 Z" id="Fill-24" fill="url(#radialGradient-3)"></path>
                    </g>
                </g>
                <polygon id="Fill-26-Copy" fill="url(#radialGradient-4)" points="79.760872 67.604639 70.9458004 76.416551 62.1338884 67.604639 70.9458004 58.7895674"></polygon>
            </g>
            <g id="Group-33-Copy-29" transform="translate(180.459892, 29.171472)" fill="url(#linearGradient-5)">
                <g id="Group" transform="translate(0.000000, 0.165405)">
                    <path d="M64.2140973,34.8989659 C64.2140973,50.7542986 59.1827139,69.7979319 29.6766346,69.7979319 L1.69819714e-12,69.7979319 L1.69819714e-12,-8.95283847e-13 L29.3355239,-8.95283847e-13 C59.0121585,-8.95283847e-13 64.2140973,19.0436333 64.2140973,34.8989659 Z M48.8585523,34.2009866 C48.8585523,21.8856519 45.9617743,12.5636277 27.8995114,12.5636277 L13.9268174,12.5636277 L13.9268174,13.9319983 L13.9268174,54.469975 L13.9268174,55.8383455 L28.2403088,55.8383455 C46.132173,55.8383455 48.8585523,46.6873676 48.8585523,34.2009866 Z M108.884774,15.355545 L108.884774,28.346507 L104.578475,28.346507 C94.4156086,28.346507 89.7648056,33.0471841 89.7648056,43.132273 L89.7648056,69.7979319 L75.3817664,69.7979319 L75.3817664,15.953813 L89.7648056,15.953813 L89.7648056,23.1330289 L89.9370575,23.1330289 C93.0375929,18.2614181 98.3774039,15.355545 105.698112,15.355545 L108.884774,15.355545 Z M166.119078,36.6600215 L166.119078,70.3348391 L151.687525,70.3348391 L151.687525,67.2422538 L151.514692,67.2422538 C147.453117,69.9053133 141.836045,71.1938905 136.30539,71.1938905 C125.589745,71.1938905 111.676691,67.3281589 111.676691,53.4115251 C111.676691,37.003642 134.231394,35.3714443 148.058032,35.3714443 C148.490115,35.3714443 150.996193,35.3714443 151.514692,35.4573494 L151.428275,34.0828671 C151.082609,29.5298943 146.934618,27.2104553 140.453381,27.2104553 C135.009143,27.2104553 129.392071,28.4990325 124.466331,31.7634281 L115.565433,22.8292928 C122.997251,17.5890788 131.37965,15.355545 140.626214,15.355545 C155.317017,15.355545 166.119078,21.798431 166.119078,36.6600215 Z M152.199631,47.5295232 L152.199631,46.1526873 C151.691199,46.066635 150.674334,46.066635 150.335379,46.066635 C148.047434,46.066635 145.844228,46.066635 142.963112,46.2387395 C140.166735,46.3247918 137.20088,46.5829485 134.573981,47.1853142 C129.235442,48.3039934 127.032236,50.1971428 127.032236,52.9508146 C127.032236,56.9092179 132.116558,58.6302628 137.624574,58.6302628 C141.946248,58.6302628 152.199631,58.1139493 152.199631,52.6926579 L152.199631,47.5295232 Z M217.557396,16.2045491 L231.729134,16.2045491 L231.729134,65.3145372 C231.729134,80.5117104 222.394456,89.3413528 204.319125,89.3413528 C194.645005,89.3413528 186.752959,86.9641414 178.860913,81.6154157 L188.365312,72.1065699 C193.202373,75.4176858 198.88804,77.2005944 204.319125,77.2005944 C212.974918,77.2005944 217.557396,72.8706736 217.557396,65.8239397 L217.557396,62.8997737 L217.387674,62.8997737 C214.078107,65.3618856 208.901604,66.9749933 203.470518,66.9749933 C185.225466,66.9749933 175.890788,56.3624423 175.890788,41.1652692 C175.890788,27.0718014 185.395188,15.355545 203.385658,15.355545 C208.562161,15.355545 214.50241,17.223354 217.387674,19.8552667 L217.557396,19.8552667 L217.557396,16.2045491 Z M219.165506,40.7002395 C219.165506,32.3505804 214.485681,26.5232141 204.50794,26.5232141 C194.441901,26.5232141 189.850375,32.5245316 189.850375,40.7002395 C189.850375,49.0498987 194.795096,54.4423869 204.50794,54.4423869 C215.280368,54.4423869 219.165506,48.7019962 219.165506,40.7002395 Z M298.735148,43.2747178 C298.735148,58.9094545 289.082199,71.1938905 270.117996,71.1938905 C250.982945,71.1938905 241.500844,58.9953597 241.500844,43.2747178 C241.500844,27.5540759 250.982945,15.355545 270.032572,15.355545 C289.253047,15.355545 298.735148,27.4681707 298.735148,43.2747178 Z M284.775562,43.232416 C284.775562,34.0952322 280.325944,27.9191728 270.117996,27.9191728 C259.822801,27.9191728 255.460431,34.0106286 255.460431,43.232416 C255.460431,52.3695998 259.997296,58.6302628 270.117996,58.6302628 C280.325944,58.6302628 284.775562,52.3695998 284.775562,43.232416 Z M361.553287,43.2747178 C361.553287,58.9094545 351.900337,71.1938905 332.936135,71.1938905 C313.801084,71.1938905 304.318983,58.9953597 304.318983,43.2747178 C304.318983,27.5540759 313.801084,15.355545 332.850711,15.355545 C352.071186,15.355545 361.553287,27.4681707 361.553287,43.2747178 Z M347.593701,43.232416 C347.593701,34.0952322 343.144083,27.9191728 332.936135,27.9191728 C322.64094,27.9191728 318.278569,34.0106286 318.278569,43.232416 C318.278569,52.3695998 322.815435,58.6302628 332.936135,58.6302628 C343.144083,58.6302628 347.593701,52.3695998 347.593701,43.232416 Z M424.371426,36.5370362 L424.284734,69.7979319 L409.893912,69.7979319 L409.893912,37.8980958 C409.893912,31.4330624 408.24677,27.6050821 397.843766,27.6050821 C389.86813,27.6050821 384.406553,31.4330624 384.406553,38.4935594 L384.406553,69.7979319 L369.929039,69.7979319 L369.929039,16.1211411 L384.406553,16.1211411 L384.406553,20.7997837 L384.579936,20.7997837 C388.307679,17.4822008 394.289406,15.355545 400.357825,15.355545 C414.835339,15.355545 424.371426,23.1816381 424.371426,36.5370362 Z M485.793606,54.0987663 C485.793606,63.290617 477.715163,71.1938905 460.956691,71.1938905 C451.07349,71.1938905 442.135638,67.8435898 434.143136,60.971178 L443.338811,51.6934222 C447.893677,56.5041104 454.511125,59.2530751 460.698869,59.2530751 C468.949193,59.2530751 471.355538,56.6759207 471.355538,54.7001023 C471.355538,52.9819994 470.58207,51.607517 464.308386,50.0612244 C463.105213,49.8035089 455.800238,47.8276906 454.597066,47.5699751 C445.315451,45.2505362 435.776013,41.4707097 435.776013,31.5916178 C435.776013,22.2279568 444.713865,15.355545 460.097282,15.355545 C470.238306,15.355545 478.230808,18.3622252 484.418552,24.3755854 L475.4807,33.2238156 C471.613361,29.4439891 466.027203,27.1245501 460.183223,27.1245501 C452.104781,27.1245501 450.214081,29.8735148 450.214081,31.4198075 C450.214081,33.6533413 453.136071,34.5123928 459.753519,36.1445906 C460.87075,36.402306 467.230376,38.120409 468.433548,38.4640295 C479.863685,41.2988994 485.793606,45.9377773 485.793606,54.0987663 Z" id="Combined-Shape"></path>
                </g>
            </g>
        </g>
    </g>
</svg>