<?xml version="1.0" encoding="UTF-8"?>
<svg width="756px" height="236px" viewBox="0 0 756 236" version="1.1" xmlns="http://www.w3.org/2000/svg" xmlns:xlink="http://www.w3.org/1999/xlink">
    <!-- Generator: Sketch 53 (72520) - https://sketchapp.com -->
    <title>v03</title>
    <desc>Created with Sketch.</desc>
    <g id="v03" stroke="none" stroke-width="1" fill="none" fill-rule="evenodd">
        <path d="M46.5400884,121.1594 L94.5673189,121.1594 C104.326496,121.1594 112.240062,128.925121 112.240062,138.504221 L112.240062,173.719379 L112.240062,183.938908 C112.240062,184.745399 111.587021,185.399842 110.780529,185.399842 C108.058358,179.22328 102.722622,172.327814 93.7342014,167.879148 C103.480766,167.879148 107.860764,167.875308 107.860764,167.879148 L107.860764,167.503623 C107.860764,167.503623 105.611808,164.959383 97.6823752,164.959383 L85.9852971,164.959383 C85.9852971,156.457239 83.3226842,150.632423 78.0584183,147.438689 L90.3400706,147.438689 C99.1526186,147.438689 104.940999,150.358454 107.860764,154.009737 L107.860764,153.27892 C104.211583,147.358811 99.6774337,144.518924 90.3400706,144.518924 L65.5196136,144.518924 C65.5196136,133.134152 56.4190829,124.149234 45.0798554,122.618933 C45.0798554,121.813142 45.7335969,121.1594 46.5400884,121.1594 Z M112.240062,173.719379 C112.240062,172.708988 112.301722,171.817012 112.240062,171.041351 L112.240062,173.719379 Z M184.792119,121.1594 C185.598611,121.1594 186.252352,121.813142 186.252352,122.618933 C174.913125,124.149234 165.812594,133.134152 165.812594,144.518924 L140.992137,144.518924 C131.654774,144.518924 127.120625,147.358811 123.471444,153.27892 L123.471444,154.009737 C126.391209,150.358454 132.179589,147.438689 140.992137,147.438689 L153.273789,147.438689 C148.009523,150.632423 145.346911,156.457239 145.346911,164.959383 L133.649833,164.959383 C125.7204,164.959383 123.471444,167.503623 123.471444,167.503623 L123.471444,167.879148 C123.471444,167.875308 127.851442,167.879148 137.598006,167.879148 C128.609586,172.327814 123.27385,179.22328 120.551678,185.399842 C119.745187,185.399842 119.092146,184.745399 119.092146,183.938908 L119.092146,173.719379 L119.092146,138.504221 C119.092146,128.925121 127.005712,121.1594 136.764889,121.1594 L184.792119,121.1594 Z M119.092146,173.719379 C119.092146,172.708988 119.030485,171.817012 119.092146,171.041351 L119.092146,173.719379 Z M46.5400884,114.8406 C45.7335969,114.8406 45.0798554,114.186858 45.0798554,113.381067 C56.4190829,111.850766 65.5196136,102.865848 65.5196136,91.4810762 L90.3400706,91.4810762 C99.6774337,91.4810762 104.211583,88.6411893 107.860764,82.7210797 L107.860764,81.9902625 C104.940999,85.6415457 99.1526186,88.5613109 90.3400706,88.5613109 L78.0584183,88.5613109 C83.3226842,85.3675768 85.9852971,79.5427607 85.9852971,71.0406173 L97.6823752,71.0406173 C105.611808,71.0406173 107.860764,68.4963771 107.860764,68.4963771 L107.860764,68.1208521 C107.860764,68.1246919 103.480766,68.1208521 93.7342014,68.1208521 C102.722622,63.6721865 108.058358,56.7767197 110.780529,50.6001585 C111.587021,50.6001585 112.240062,51.2546007 112.240062,52.0610921 L112.240062,62.2806209 L112.240062,97.4957786 C112.240062,107.074879 104.326496,114.8406 94.5673189,114.8406 L46.5400884,114.8406 Z M112.240062,62.2806209 C112.240062,63.2910124 112.301722,64.1829877 112.240062,64.9586489 L112.240062,62.2806209 Z M184.792119,114.8406 L136.764889,114.8406 C127.005712,114.8406 119.092146,107.074879 119.092146,97.4957786 L119.092146,62.2806209 L119.092146,52.0610921 C119.092146,51.2546007 119.745187,50.6001585 120.551678,50.6001585 C123.27385,56.7767197 128.609586,63.6721865 137.598006,68.1208521 C127.851442,68.1208521 123.471444,68.1246919 123.471444,68.1208521 L123.471444,68.4963771 C123.471444,68.4963771 125.7204,71.0406173 133.649833,71.0406173 L145.346911,71.0406173 C145.346911,79.5427607 148.009523,85.3675768 153.273789,88.5613109 L140.992137,88.5613109 C132.179589,88.5613109 126.391209,85.6415457 123.471444,81.9902625 L123.471444,82.7210797 C127.120625,88.6411893 131.654774,91.4810762 140.992137,91.4810762 L165.812594,91.4810762 C165.812594,102.865848 174.913125,111.850766 186.252352,113.381067 C186.252352,114.186858 185.598611,114.8406 184.792119,114.8406 Z M119.092146,62.2806209 C119.092146,63.2910124 119.030485,64.1829877 119.092146,64.9586489 L119.092146,62.2806209 Z M106.438689,118.205259 L115.786655,108.853211 L125.138022,118.205259 L115.786655,127.553224 L106.438689,118.205259 Z M289.284617,114.528035 C289.284617,130.385474 284.252565,149.431638 254.742565,149.431638 L225.061987,149.431638 L225.061987,79.6244313 L254.401409,79.6244313 C284.081987,79.6244313 289.284617,98.6705951 289.284617,114.528035 Z M273.927032,113.829962 C273.927032,101.512991 271.029869,92.1897285 252.965206,92.1897285 L238.990655,92.1897285 L238.990655,93.5582808 L238.990655,134.101644 L238.990655,135.470197 L253.306049,135.470197 C271.20029,135.470197 273.927032,126.318003 273.927032,113.829962 Z M333.96123,94.9820167 L333.96123,107.974705 L329.654358,107.974705 C319.490142,107.974705 314.838721,112.676007 314.838721,122.762436 L314.838721,149.431638 L300.45377,149.431638 L300.45377,95.5803642 L314.838721,95.5803642 L314.838721,102.760534 L315.010996,102.760534 C318.111943,97.888276 323.452463,94.9820167 330.774145,94.9820167 L333.96123,94.9820167 Z M391.203139,116.289324 L391.203139,149.968616 L376.769668,149.968616 L376.769668,146.87562 L376.596812,146.87562 C372.534697,149.539034 366.916879,150.827782 361.385489,150.827782 C350.668421,150.827782 336.753518,146.961537 336.753518,133.043054 C336.753518,116.63299 359.311218,115.000576 373.139693,115.000576 C373.571833,115.000576 376.078244,115.000576 376.596812,115.086492 L376.510384,113.711827 C376.164672,109.158249 372.01613,106.838502 365.534032,106.838502 C360.08907,106.838502 354.471252,108.127251 349.544857,111.39208 L340.642776,102.456758 C348.075582,97.2158473 356.459095,94.9820167 365.706888,94.9820167 C380.399643,94.9820167 391.203139,101.425759 391.203139,116.289324 Z M377.281842,127.16027 L377.281842,125.783251 C376.773343,125.697188 375.756343,125.697188 375.417343,125.697188 C373.129094,125.697188 370.925595,125.697188 368.044096,125.869315 C365.247348,125.955379 362.281099,126.21357 359.65385,126.816015 C354.314602,127.934843 352.111103,129.828244 352.111103,132.582282 C352.111103,136.541211 357.196101,138.262485 362.704849,138.262485 C367.027097,138.262485 377.281842,137.746103 377.281842,132.324091 L377.281842,127.16027 Z M442.648292,95.8311336 L456.821913,95.8311336 L456.821913,144.947647 C456.821913,160.14684 447.485995,168.977656 429.408262,168.977656 C419.732856,168.977656 411.839762,166.600128 403.946667,161.250692 L413.452329,151.740583 C418.290032,155.052139 423.976455,156.835284 429.408262,156.835284 C438.065205,156.835284 442.648292,152.504788 442.648292,145.457118 L442.648292,142.532563 L442.478548,142.532563 C439.16854,144.995002 433.991349,146.608324 428.559542,146.608324 C410.312066,146.608324 400.976148,135.994363 400.976148,120.79517 C400.976148,106.69983 410.48181,94.9820167 428.47467,94.9820167 C433.651861,94.9820167 439.5929,96.8500739 442.478548,99.4823363 L442.648292,99.4823363 L442.648292,95.8311336 Z M444.256616,120.330079 C444.256616,111.97931 439.576169,106.15117 429.597102,106.15117 C419.529726,106.15117 414.937589,112.153285 414.937589,120.330079 C414.937589,128.680848 419.882967,134.074052 429.597102,134.074052 C440.370962,134.074052 444.256616,128.332899 444.256616,120.330079 Z M523.836831,122.904899 C523.836831,138.541714 514.182599,150.827782 495.215877,150.827782 C476.078283,150.827782 466.594922,138.62763 466.594922,122.904899 C466.594922,107.182169 476.078283,94.9820167 495.130441,94.9820167 C514.35347,94.9820167 523.836831,107.096252 523.836831,122.904899 Z M509.87539,122.862592 C509.87539,113.724194 505.42518,107.547314 495.215877,107.547314 C484.919314,107.547314 480.556363,113.639579 480.556363,122.862592 C480.556363,132.00099 485.093832,138.262485 495.215877,138.262485 C505.42518,138.262485 509.87539,132.00099 509.87539,122.862592 Z M586.663317,122.904899 C586.663317,138.541714 577.009085,150.827782 558.042362,150.827782 C538.904769,150.827782 529.421408,138.62763 529.421408,122.904899 C529.421408,107.182169 538.904769,94.9820167 557.956927,94.9820167 C577.179956,94.9820167 586.663317,107.096252 586.663317,122.904899 Z M572.701876,122.862592 C572.701876,113.724194 568.251666,107.547314 558.042362,107.547314 C547.745799,107.547314 543.382849,113.639579 543.382849,122.862592 C543.382849,132.00099 547.920317,138.262485 558.042362,138.262485 C568.251666,138.262485 572.701876,132.00099 572.701876,122.862592 Z M649.489803,116.166322 L649.4031,149.431638 L635.010365,149.431638 L635.010365,117.527563 C635.010365,111.06167 633.363004,107.233181 622.958618,107.233181 C614.981922,107.233181 609.519619,111.06167 609.519619,118.123106 L609.519619,149.431638 L595.040182,149.431638 L595.040182,95.7477145 L609.519619,95.7477145 L609.519619,100.426979 L609.693026,100.426979 C613.421264,97.1089551 619.403786,94.9820167 625.473011,94.9820167 C639.952449,94.9820167 649.489803,102.80915 649.489803,116.166322 Z M710.920145,133.730386 C710.920145,142.923458 702.840628,150.827782 686.07993,150.827782 C676.195415,150.827782 667.256376,147.477036 659.262812,140.603711 L668.459708,131.324722 C673.01518,136.13605 679.633507,138.88538 685.822073,138.88538 C694.073494,138.88538 696.480158,136.307883 696.480158,134.331802 C696.480158,132.613471 695.706587,131.238806 689.432069,129.692308 C688.228737,129.434558 680.922792,127.458477 679.719459,127.200727 C670.436611,124.88098 660.895906,121.100652 660.895906,111.220247 C660.895906,101.855342 669.834945,94.9820167 685.220407,94.9820167 C695.362778,94.9820167 703.356342,97.9890964 709.544908,104.003256 L700.605869,112.852662 C696.738015,109.072333 691.151115,106.752586 685.306359,106.752586 C677.226843,106.752586 675.335892,109.501916 675.335892,111.048414 C675.335892,113.282244 678.25827,114.14141 684.876597,115.773825 C685.993977,116.031574 692.354448,117.749906 693.55778,118.093572 C704.989436,120.928818 710.920145,125.568313 710.920145,133.730386 Z" id="Combined-Shape" fill="#151A28"></path>
    </g>
</svg>