<?xml version="1.0" encoding="utf-8"?>
<!-- Generator: Adobe Illustrator 19.2.0, SVG Export Plug-In . SVG Version: 6.00 Build 0)  -->
<svg version="1.1" id="Layer_1" xmlns="http://www.w3.org/2000/svg" xmlns:xlink="http://www.w3.org/1999/xlink" x="0px" y="0px"
	 viewBox="0 0 59.2 65.4" style="enable-background:new 0 0 59.2 65.4;" xml:space="preserve">
<style type="text/css">
	.st0{fill:#FFFFFF;}
</style>
<g>
	<path class="st0" d="M29.6,15L29.6,15L29.6,15c-4.7,0-9.1,1.8-12.5,5.2c-3.3,3.3-5.2,7.8-5.2,12.5c0,9.7,7.9,17.6,17.7,17.6l0,0
		l0,0l0,0c4.7,0,9.1-1.8,12.5-5.2c3.3-3.3,5.2-7.8,5.2-12.5C47.2,23,39.3,15,29.6,15L29.6,15z M29.6,16.5c2.7,0,5.1,4.1,6.1,9.7
		H23.5c0.4-1.9,0.9-3.7,1.5-5.2C26.3,18.2,27.9,16.6,29.6,16.5L29.6,16.5z M36.3,32.7c0,1.7-0.1,3.4-0.3,4.9H23.3
		C23.1,36,23,34.4,23,32.7s0.1-3.4,0.3-4.9H36C36.2,29.3,36.3,31,36.3,32.7z M29.6,48.9L29.6,48.9L29.6,48.9L29.6,48.9
		c-2.7,0-5.1-4.1-6.1-9.7h12.2c-0.4,1.9-0.9,3.7-1.5,5.2C32.9,47.2,31.3,48.9,29.6,48.9z M18.2,21.3c2.1-2.1,4.7-3.6,7.6-4.3
		c-0.8,0.9-1.5,2-2.1,3.4c-0.7,1.7-1.3,3.7-1.7,5.8h-7.2C15.6,24.4,16.7,22.7,18.2,21.3z M14.2,27.8h7.5c-0.2,1.6-0.3,3.2-0.3,4.9
		c0,1.7,0.1,3.4,0.3,4.9h-7.5c-0.5-1.6-0.8-3.2-0.8-4.9C13.4,31,13.7,29.4,14.2,27.8z M14.8,39.1H22c0.7,4,2.1,7.3,3.8,9.3
		C20.9,47.2,16.8,43.7,14.8,39.1z M41,44.1c-2.1,2.1-4.8,3.6-7.6,4.3c0.8-0.9,1.5-2,2.1-3.4c0.7-1.7,1.3-3.7,1.7-5.8h7.2
		C43.6,41,42.5,42.7,41,44.1z M45,37.6h-7.5c0.2-1.6,0.3-3.2,0.3-4.9s-0.1-3.4-0.3-4.9H45c0.5,1.6,0.8,3.2,0.8,4.9
		C45.8,34.4,45.5,36,45,37.6z M44.4,26.3h-7.2c-0.7-4-2.1-7.3-3.8-9.3C38.3,18.2,42.4,21.7,44.4,26.3z"/>
	<path class="st0" d="M9.5,13.1c4.4-4.5,10.2-7.4,16.4-8.2c0.5,1.6,1.9,2.9,3.7,2.9c2.1,0,3.9-1.7,3.9-3.9S31.8,0,29.6,0
		c-2,0-3.6,1.5-3.8,3.4C19.2,4.2,13,7.3,8.4,12L9.5,13.1z M29.6,1.5c1.3,0,2.4,1.1,2.4,2.4s-1.1,2.4-2.4,2.4c-1.3,0-2.4-1.1-2.4-2.4
		C27.2,2.5,28.3,1.5,29.6,1.5z"/>
	<path class="st0" d="M1.2,41.1l1.4-0.4c-0.8-2.6-1.1-5.2-1.1-7.9c0-3.7,0.7-7.4,2.1-10.8c0.3,0.1,0.7,0.1,1,0.1
		c1.4,0,2.7-0.7,3.4-1.9c0.5-0.9,0.7-1.9,0.4-2.9s-0.9-1.8-1.8-2.4c-0.6-0.3-1.3-0.5-2-0.5c-1.4,0-2.7,0.7-3.4,1.9
		c-0.4,0.8-0.6,1.9-0.3,2.9c0.2,0.8,0.7,1.5,1.4,2C0.8,24.8,0,28.7,0,32.7C0,35.5,0.4,38.4,1.2,41.1z M2.6,17
		c0.4-0.7,1.2-1.2,2.1-1.2c0.4,0,0.8,0.1,1.2,0.3c0.6,0.3,0.9,0.8,1.1,1.5c0.2,0.6,0.1,1.3-0.2,1.8c-0.7,1.1-2.2,1.5-3.3,0.8
		c-0.6-0.3-0.9-0.8-1.1-1.5C2.2,18.2,2.3,17.5,2.6,17z"/>
	<path class="st0" d="M7.2,49.7c1.2-1.2,1.5-3.1,0.6-4.7c-0.7-1.2-2-2-3.4-2c-0.7,0-1.3,0.2-1.9,0.5c-0.9,0.5-1.6,1.3-1.8,2.3
		c-0.3,1-0.1,2,0.4,2.9c0.7,1.2,2,2,3.4,2c0.5,0,1-0.1,1.5-0.3c3.9,5.1,9.3,8.9,15.5,10.6l0.4-1.4C16.1,58.1,10.9,54.5,7.2,49.7z
		 M2.4,48.1c-0.3-0.6-0.4-1.2-0.2-1.8c0.2-0.6,0.6-1.1,1.1-1.4c0.4-0.2,0.8-0.3,1.2-0.3c0.9,0,1.7,0.5,2.1,1.2
		c0.6,1.1,0.2,2.6-0.9,3.3C4.6,49.7,3.1,49.2,2.4,48.1z"/>
	<path class="st0" d="M49.5,52.5c-4.4,4.4-10.1,7.2-16.2,8c-0.2-0.6-0.5-1.2-1-1.7c-0.7-0.7-1.7-1.2-2.8-1.2c-2.1,0-3.9,1.7-3.9,3.8
		c0,1,0.4,2,1.1,2.8c0.7,0.7,1.7,1.2,2.7,1.2l0,0c2,0,3.6-1.5,3.8-3.4c6.5-0.8,12.5-3.8,17.2-8.5L49.5,52.5z M29.6,63.9v0.7V63.9
		c-0.7,0-1.3-0.3-1.7-0.7c-0.4-0.5-0.7-1.1-0.7-1.7c0-1.3,1.1-2.4,2.4-2.4c0.6,0,1.2,0.3,1.7,0.7c0.4,0.5,0.7,1.1,0.7,1.7
		C32,62.9,30.9,63.9,29.6,63.9z"/>
	<path class="st0" d="M52.1,15.9c-0.5,0.5-0.8,1-1,1.7c-0.3,1-0.2,2,0.3,3c0.7,1.2,2,2,3.4,2c0.7,0,1.3-0.2,1.9-0.5
		c0.9-0.5,1.6-1.3,1.9-2.3c0.3-1,0.2-2-0.3-3c-0.7-1.2-2-2-3.4-2c-0.5,0-1,0.1-1.4,0.3C49.4,9.6,43.5,5.6,36.9,4l-0.4,1.5
		C42.7,7,48.3,10.7,52.1,15.9z M56.9,17.5c0.3,0.6,0.4,1.2,0.2,1.8c-0.2,0.6-0.6,1.1-1.1,1.4c-1.1,0.6-2.6,0.2-3.2-0.9
		c-0.3-0.6-0.4-1.2-0.2-1.8c0.2-0.6,0.6-1.1,1.1-1.4c0.4-0.2,0.8-0.3,1.2-0.3C55.7,16.3,56.5,16.8,56.9,17.5z"/>
	<path class="st0" d="M56.8,44.4c1.6-3.7,2.4-7.7,2.4-11.7c0-2.5-0.3-5.1-1-7.5l-1.5,0.4c0.6,2.3,0.9,4.7,0.9,7.1
		c0,3.8-0.8,7.5-2.3,11c-0.3-0.1-0.7-0.1-1.1-0.1c-1.4,0-2.6,0.7-3.3,1.9c-1.1,1.8-0.5,4.2,1.3,5.3c0.6,0.4,1.3,0.5,2,0.5
		c1.4,0,2.6-0.7,3.3-1.9c0.5-0.9,0.7-1.9,0.4-2.9C58,45.7,57.5,45,56.8,44.4z M56.4,48.7c-0.4,0.7-1.2,1.2-2.1,1.2
		c-0.4,0-0.8-0.1-1.2-0.3c-1.1-0.7-1.5-2.1-0.8-3.3c0.4-0.7,1.2-1.2,2.1-1.2c0.4,0,0.8,0.1,1.2,0.3c0.5,0.3,0.9,0.8,1.1,1.5
		C56.9,47.5,56.8,48.1,56.4,48.7z"/>
</g>
</svg>
