<?xml version="1.0" encoding="utf-8"?>
<!-- Generator: Adobe Illustrator 19.2.0, SVG Export Plug-In . SVG Version: 6.00 Build 0)  -->
<svg version="1.1" id="Layer_1" xmlns="http://www.w3.org/2000/svg" xmlns:xlink="http://www.w3.org/1999/xlink" x="0px" y="0px"
	 viewBox="0 0 22.3 20.7" style="enable-background:new 0 0 22.3 20.7;" xml:space="preserve">
<style type="text/css">
	.st0{fill:#FFFFFF;}
</style>
<title>game_019-challenge-swords-match-attack-weapon</title>
<desc>Created with Sketch.</desc>
<g>
	<g transform="translate(-429.000000, -93.000000)">
		<g transform="translate(427.000000, 91.000000)">
			
				<g transform="translate(13.500000, 14.000000) rotate(45.000000) translate(-13.500000, -14.000000) translate(9.000000, 0.000000)">
				<path class="st0" d="M2.9,0C3.1-0.2,3-0.5,2.8-0.7C2.6-0.8,2.2-0.8,2.1-0.5l-2,3C-0.1,2.7,0,3,0.2,3.1C0.5,3.3,0.8,3.2,0.9,3
					L2.9,0z M4,10.4c0,0.3,0.2,0.5,0.5,0.5S5,10.7,5,10.4V2.7c0-0.3-0.2-0.5-0.5-0.5S4,2.5,4,2.7V10.4z"/>
				<path class="st0" d="M1,14.5C1,14.2,0.8,14,0.5,14S0,14.2,0,14.5v3.2c0,0.3,0.2,0.5,0.5,0.5S1,18,1,17.7V14.5z M1,2.7
					c0-0.3-0.2-0.5-0.5-0.5S0,2.5,0,2.7v7.6c0,0.3,0.2,0.5,0.5,0.5S1,10.6,1,10.3V2.7z M4.1,3c0.2,0.2,0.5,0.3,0.7,0.1
					C5,3,5.1,2.7,4.9,2.5l-2-3C2.8-0.8,2.5-0.8,2.2-0.7C2-0.5,1.9-0.2,2.1,0L4.1,3z M4,17.7c0,0.3,0.2,0.5,0.5,0.5S5,18,5,17.7v-3.1
					c0-0.3-0.2-0.5-0.5-0.5S4,14.3,4,14.6V17.7z"/>
				<path class="st0" d="M-0.5,18.2h6c0.3,0,0.5,0.2,0.5,0.5c0,0.3-0.2,0.5-0.5,0.5h-6C-0.8,19.2-1,19-1,18.7
					C-1,18.5-0.8,18.2-0.5,18.2z M-0.5,20.2h6c0.8,0,1.5-0.7,1.5-1.5c0-0.8-0.7-1.5-1.5-1.5h-6c-0.8,0-1.5,0.7-1.5,1.5
					C-2,19.6-1.3,20.2-0.5,20.2z"/>
				<polygon class="st0" points="1,22.7 2,22.7 2,19.7 1,19.7 				"/>
				<polygon class="st0" points="4,19.7 3,19.7 3,22.7 4,22.7 				"/>
				<path class="st0" d="M5,24.7c0-1.4-1.1-2.5-2.5-2.5S0,23.4,0,24.7c0,1.4,1.1,2.5,2.5,2.5S5,26.1,5,24.7z M1,24.7
					c0-0.8,0.7-1.5,1.5-1.5S4,23.9,4,24.7c0,0.8-0.7,1.5-1.5,1.5S1,25.6,1,24.7z"/>
				<path class="st0" d="M2,10.5C2,10.8,2.2,11,2.5,11S3,10.8,3,10.5V4.7c0-0.3-0.2-0.5-0.5-0.5S2,4.5,2,4.7V10.5z M2,17.7
					c0,0.3,0.2,0.5,0.5,0.5S3,18,3,17.7v-3.2c0-0.3-0.2-0.5-0.5-0.5S2,14.3,2,14.6V17.7z"/>
			</g>
			
				<g transform="translate(14.500000, 14.000000) scale(-1, 1) rotate(45.000000) translate(-14.500000, -14.000000) translate(10.000000, 0.000000)">
				<path class="st0" d="M4.1-1.2C4.3-1.4,4.2-1.8,4-1.9C3.8-2.1,3.5-2,3.3-1.8l-2,3C1.2,1.5,1.2,1.8,1.5,1.9S2,2,2.1,1.8L4.1-1.2z
					 M5.2,16.5c0,0.3,0.2,0.5,0.5,0.5s0.5-0.2,0.5-0.5v-15C6.2,1.2,6,1,5.7,1S5.2,1.2,5.2,1.5V16.5z"/>
				<path class="st0" d="M2.2,1.5C2.2,1.2,2,1,1.7,1S1.2,1.2,1.2,1.5v15c0,0.3,0.2,0.5,0.5,0.5s0.5-0.2,0.5-0.5V1.5z M5.3,1.8
					C5.5,2,5.8,2.1,6,1.9s0.3-0.5,0.1-0.7l-2-3C4-2,3.7-2.1,3.5-1.9C3.2-1.8,3.2-1.4,3.3-1.2L5.3,1.8z"/>
				<path class="st0" d="M0.7,17h6c0.3,0,0.5,0.2,0.5,0.5C7.2,17.8,7,18,6.7,18h-6c-0.3,0-0.5-0.2-0.5-0.5C0.2,17.2,0.5,17,0.7,17z
					 M0.7,19h6c0.8,0,1.5-0.7,1.5-1.5c0-0.8-0.7-1.5-1.5-1.5h-6c-0.8,0-1.5,0.7-1.5,1.5C-0.8,18.3-0.1,19,0.7,19z"/>
				<polygon class="st0" points="2.2,21.5 3.2,21.5 3.2,18.5 2.2,18.5 				"/>
				<polygon class="st0" points="5.2,18.5 4.2,18.5 4.2,21.5 5.2,21.5 				"/>
				<path class="st0" d="M6.2,23.5c0-1.4-1.1-2.5-2.5-2.5s-2.5,1.1-2.5,2.5S2.4,26,3.7,26S6.2,24.9,6.2,23.5z M2.2,23.5
					c0-0.8,0.7-1.5,1.5-1.5s1.5,0.7,1.5,1.5S4.6,25,3.7,25S2.2,24.3,2.2,23.5z"/>
				<path class="st0" d="M3.2,16.5c0,0.3,0.2,0.5,0.5,0.5s0.5-0.2,0.5-0.5v-13C4.2,3.2,4,3,3.7,3S3.2,3.2,3.2,3.5V16.5z"/>
			</g>
		</g>
	</g>
</g>
</svg>
