<svg xmlns="http://www.w3.org/2000/svg" xmlns:xlink="http://www.w3.org/1999/xlink" version="1.1" x="0px" y="0px" viewBox="0 0 100 125" enable-background="new 0 0 100 100" xml:space="preserve"><g><path d="M-778.306,25.076h-22.973 M-809.811,25.076h-10.83c-0.544,0-0.984,0.44-0.984,0.984v47.916c0,0.543,0.44,0.984,0.984,0.984   h26.061h9.576h26.061c0.544,0,0.984-0.441,0.984-0.984V26.06c0-0.544-0.44-0.984-0.984-0.984h-10.83 M-759.928,72.991h-59.729   V27.044h59.729V72.991z"/><path d="M-813.967,49.688h5.723c0.468,0,0.848-0.38,0.848-0.848v-5.935c0-0.468-0.38-0.848-0.848-0.848h-5.723   c-0.47,0-0.849,0.38-0.849,0.848v5.935C-814.815,49.309-814.437,49.688-813.967,49.688z M-813.119,43.754h4.026v4.239h-4.026   V43.754z"/><path d="M-805.489,49.688h5.723c0.469,0,0.848-0.38,0.848-0.848v-5.935c0-0.468-0.379-0.848-0.848-0.848h-5.723   c-0.469,0-0.848,0.38-0.848,0.848v5.935C-806.337,49.309-805.958,49.688-805.489,49.688z M-804.642,43.754h4.027v4.239h-4.027   V43.754z"/><path d="M-805.489,58.563h5.723c0.469,0,0.848-0.38,0.848-0.848v-5.935c0-0.468-0.379-0.848-0.848-0.848h-5.723   c-0.469,0-0.848,0.38-0.848,0.848v5.935C-806.337,58.184-805.958,58.563-805.489,58.563z M-804.642,52.629h4.027v4.239h-4.027   V52.629z"/><path d="M-797.012,49.688h5.723c0.469,0,0.848-0.38,0.848-0.848v-5.935c0-0.468-0.379-0.848-0.848-0.848h-5.723   c-0.468,0-0.847,0.38-0.847,0.848v5.935C-797.858,49.309-797.479,49.688-797.012,49.688z M-796.164,43.754h4.028v4.239h-4.028   V43.754z"/><path d="M-788.533,49.688h5.723c0.469,0,0.848-0.38,0.848-0.848v-5.935c0-0.468-0.379-0.848-0.848-0.848h-5.723   c-0.469,0-0.849,0.38-0.849,0.848v5.935C-789.382,49.309-789.002,49.688-788.533,49.688z M-787.686,43.754h4.026v4.239h-4.026   V43.754z"/><path d="M-780.056,49.688h5.723c0.469,0,0.849-0.38,0.849-0.848v-5.935c0-0.468-0.38-0.848-0.849-0.848h-5.723   c-0.469,0-0.848,0.38-0.848,0.848v5.935C-780.903,49.309-780.524,49.688-780.056,49.688z M-779.207,43.754h4.026v4.239h-4.026   V43.754z"/><path d="M-771.687,49.688h5.723c0.468,0,0.848-0.38,0.848-0.848v-5.935c0-0.468-0.38-0.848-0.848-0.848h-5.723   c-0.47,0-0.849,0.38-0.849,0.848v5.935C-772.535,49.309-772.156,49.688-771.687,49.688z M-770.839,43.754h4.026v4.239h-4.026   V43.754z"/><path d="M-771.645,67.394h5.723c0.468,0,0.848-0.38,0.848-0.848v-5.935c0-0.468-0.38-0.848-0.848-0.848h-5.723   c-0.47,0-0.849,0.38-0.849,0.848v5.935C-772.493,67.014-772.114,67.394-771.645,67.394z M-770.797,61.459h4.026v4.239h-4.026   V61.459z"/><path d="M-814.015,67.394h5.723c0.468,0,0.848-0.38,0.848-0.848v-5.935c0-0.468-0.38-0.848-0.848-0.848h-5.723   c-0.47,0-0.849,0.38-0.849,0.848v5.935C-814.863,67.014-814.484,67.394-814.015,67.394z M-813.167,61.459h4.026v4.239h-4.026   V61.459z"/><path d="M-805.489,40.828h5.723c0.469,0,0.848-0.38,0.848-0.848v-5.935c0-0.468-0.379-0.848-0.848-0.848h-5.723   c-0.469,0-0.848,0.38-0.848,0.848v5.935C-806.337,40.448-805.958,40.828-805.489,40.828z M-804.642,34.893h4.027v4.239h-4.027   V34.893z"/><path d="M-813.968,40.828h5.723c0.469,0,0.848-0.38,0.848-0.848v-5.935c0-0.468-0.379-0.848-0.848-0.848h-5.723   c-0.469,0-0.848,0.38-0.848,0.848v5.935C-814.815,40.448-814.437,40.828-813.968,40.828z M-813.12,34.893h4.027v4.239h-4.027   V34.893z"/><path d="M-797.012,40.828h5.723c0.469,0,0.848-0.38,0.848-0.848v-5.935c0-0.468-0.379-0.848-0.848-0.848h-5.723   c-0.468,0-0.847,0.38-0.847,0.848v5.935C-797.858,40.448-797.479,40.828-797.012,40.828z M-796.164,34.893h4.028v4.239h-4.028   V34.893z"/><path d="M-788.533,40.828h5.723c0.469,0,0.848-0.38,0.848-0.848v-5.935c0-0.468-0.379-0.848-0.848-0.848h-5.723   c-0.469,0-0.849,0.38-0.849,0.848v5.935C-789.382,40.448-789.002,40.828-788.533,40.828z M-787.686,34.893h4.026v4.239h-4.026   V34.893z"/><path d="M-780.056,40.828h5.723c0.469,0,0.849-0.38,0.849-0.848v-5.935c0-0.468-0.38-0.848-0.849-0.848h-5.723   c-0.469,0-0.848,0.38-0.848,0.848v5.935C-780.903,40.448-780.524,40.828-780.056,40.828z M-779.207,34.893h4.026v4.239h-4.026   V34.893z"/><path d="M-771.687,40.828h5.723c0.468,0,0.848-0.38,0.848-0.848v-5.935c0-0.468-0.38-0.848-0.848-0.848h-5.723   c-0.47,0-0.849,0.38-0.849,0.848v5.935C-772.535,40.448-772.156,40.828-771.687,40.828z M-770.839,34.893h4.026v4.239h-4.026   V34.893z"/><path d="M-813.967,58.549h5.723c0.468,0,0.848-0.38,0.848-0.848v-5.935c0-0.468-0.38-0.848-0.848-0.848h-5.723   c-0.47,0-0.849,0.38-0.849,0.848v5.935C-814.815,58.169-814.437,58.549-813.967,58.549z M-813.119,52.615h4.026v4.239h-4.026   V52.615z"/><path d="M-797.012,58.549h5.723c0.469,0,0.848-0.38,0.848-0.848v-5.935c0-0.468-0.379-0.848-0.848-0.848h-5.723   c-0.468,0-0.847,0.38-0.847,0.848v5.935C-797.858,58.169-797.479,58.549-797.012,58.549z M-796.164,52.615h4.028v4.239h-4.028   V52.615z"/><path d="M-788.533,58.549h5.723c0.469,0,0.848-0.38,0.848-0.848v-5.935c0-0.468-0.379-0.848-0.848-0.848h-5.723   c-0.469,0-0.849,0.38-0.849,0.848v5.935C-789.382,58.169-789.002,58.549-788.533,58.549z M-787.686,52.615h4.026v4.239h-4.026   V52.615z"/><path d="M-780.056,58.549h14.091c0.469,0,0.849-0.38,0.849-0.848v-5.935c0-0.468-0.38-0.848-0.849-0.848h-14.091   c-0.469,0-0.848,0.38-0.848,0.848v5.935C-780.903,58.169-780.524,58.549-780.056,58.549z M-779.207,52.615h12.395v4.239h-12.395   V52.615z"/><path d="M-805.515,67.41h31.196c0.468,0,0.848-0.38,0.848-0.848v-5.935c0-0.468-0.38-0.848-0.848-0.848h-31.196   c-0.47,0-0.849,0.38-0.849,0.848v5.935C-806.363,67.03-805.984,67.41-805.515,67.41z M-804.667,61.476h29.5v4.239h-29.5V61.476z"/></g><g><path d="M16.126,67.759c0,0.545,0.443,0.988,0.988,0.988h65.773c0.547,0,0.988-0.442,0.988-0.988c0-0.545-0.441-0.988-0.988-0.988   H17.114C16.569,66.771,16.126,67.214,16.126,67.759z"/><path d="M81.874,33.899c0-0.542-0.438-0.98-0.98-0.98h-8.826V18.043c0-0.542-0.439-0.981-0.982-0.981H28.913   c-0.543,0-0.98,0.439-0.98,0.981v14.875h-8.828c-0.541,0-0.98,0.439-0.98,0.98l-6.518,33.826l1.518,14.232   c0,0.542,0.439,0.981,0.98,0.981h71.789c0.543,0,0.98-0.438,0.98-0.981l1.52-14.236L81.874,33.899z M29.894,34.88v-1.961V19.024   h40.211l-0.021,33.289l-40.189,0.016V34.88z M85.208,80.976h-70.25l-1.434-13.254l6.562-32.842h7.846v12.959h-2.99l0.018,0.015   c-0.238,0.01-0.473,0.1-0.654,0.281c-0.385,0.385-0.385,1.009,0,1.396l3.611,4.902h44.041l4.061-4.902   c0.387-0.386,0.385-1.012,0-1.396c-0.211-0.211-0.494-0.295-0.77-0.274l0.021-0.021h-3.203V34.88h7.846l6.574,32.949L85.208,80.976   z"/><polygon points="54.032,31.948 51.031,34.947 46.625,39.353 42.532,35.258 40.411,37.378 46.625,43.594 51.031,39.189    54.032,36.189 59.591,30.63 57.47,28.509  "/></g><text x="0" y="115" fill="#000000" font-size="5px" font-weight="bold" font-family="'Helvetica Neue', Helvetica, Arial-Unicode, Arial, Sans-serif">Created by Fabiano Coelho</text><text x="0" y="120" fill="#000000" font-size="5px" font-weight="bold" font-family="'Helvetica Neue', Helvetica, Arial-Unicode, Arial, Sans-serif">from the Noun Project</text></svg>