<?xml version="1.0" encoding="utf-8"?>
<!-- Generator: Adobe Illustrator 19.2.0, SVG Export Plug-In . SVG Version: 6.00 Build 0)  -->
<svg version="1.1" id="Layer_1" xmlns="http://www.w3.org/2000/svg" xmlns:xlink="http://www.w3.org/1999/xlink" x="0px" y="0px"
	 viewBox="0 0 456 435.4" style="enable-background:new 0 0 456 435.4;" xml:space="preserve">
<style type="text/css">
	.st0{fill:#FFFFFF;}
</style>
<title>v01-white</title>
<desc>Created with Sketch.</desc>
<g id="v01-white">
	<path id="Combined-Shape" class="st0" d="M4.7,227.9h155.1c31.5,0,57.1,25.1,57.1,56v113.7v33c0,2.6-2.1,4.7-4.7,4.7
		c-8.8-20-26-42.2-55.1-56.6c31.5,0,45.6,0,45.6,0v-1.2c0,0-7.3-8.2-32.9-8.2h-37.8c0-27.5-8.6-46.3-25.6-56.6h39.7
		c28.5,0,47.2,9.4,56.6,21.2v-2.4c-11.8-19.1-26.4-28.3-56.6-28.3H66c0-36.8-29.4-65.8-66-70.7C0,230,2.1,227.9,4.7,227.9z
		 M216.9,397.7c0-3.3,0.2-6.1,0-8.7V397.7z M451.3,227.9c2.6,0,4.7,2.1,4.7,4.7c-36.6,4.9-66,34-66,70.7h-80.2
		c-30.2,0-44.8,9.2-56.6,28.3v2.4c9.4-11.8,28.1-21.2,56.6-21.2h39.7c-17,10.3-25.6,29.1-25.6,56.6h-37.8c-25.6,0-32.9,8.2-32.9,8.2
		v1.2c0,0,14.1,0,45.6,0c-29,14.4-46.3,36.6-55.1,56.6c-2.6,0-4.7-2.1-4.7-4.7v-33V283.9c0-30.9,25.6-56,57.1-56H451.3z
		 M239.1,397.7c0-3.3-0.2-6.1,0-8.7V397.7z M4.7,207.5c-2.6,0-4.7-2.1-4.7-4.7c36.6-4.9,66-34,66-70.7h80.2
		c30.2,0,44.8-9.2,56.6-28.3v-2.4c-9.4,11.8-28.1,21.2-56.6,21.2h-39.7c17-10.3,25.6-29.1,25.6-56.6h37.8c25.6,0,32.9-8.2,32.9-8.2
		v-1.2c0,0-14.1,0-45.6,0c29-14.4,46.3-36.6,55.1-56.6c2.6,0,4.7,2.1,4.7,4.7v33v113.7c0,30.9-25.6,56-57.1,56H4.7z M216.9,37.7
		c0,3.3,0.2,6.1,0,8.7V37.7z M451.3,207.5H296.2c-31.5,0-57.1-25.1-57.1-56V37.7v-33c0-2.6,2.1-4.7,4.7-4.7
		c8.8,20,26,42.2,55.1,56.6c-31.5,0-45.6,0-45.6,0v1.2c0,0,7.3,8.2,32.9,8.2h37.8c0,27.5,8.6,46.3,25.6,56.6h-39.7
		c-28.5,0-47.2-9.4-56.6-21.2v2.4c11.8,19.1,26.4,28.3,56.6,28.3H390c0,36.8,29.4,65.8,66,70.7C456,205.4,453.9,207.5,451.3,207.5z
		 M239.1,37.7c0,3.3-0.2,6.1,0,8.7V37.7z M198.2,218.4l30.2-30.2l30.2,30.2l-30.2,30.2L198.2,218.4z"/>
</g>
</svg>
