<?xml version="1.0" encoding="UTF-8"?>
<svg width="600px" height="524px" viewBox="0 0 600 524" version="1.1" xmlns="http://www.w3.org/2000/svg" xmlns:xlink="http://www.w3.org/1999/xlink">
    <!-- Generator: Sketch 53 (72520) - https://sketchapp.com -->
    <title>v02-white</title>
    <desc>Created with Sketch.</desc>
    <g id="v02-white" stroke="none" stroke-width="1" fill="none" fill-rule="evenodd">
        <path d="M112.447942,436.330054 C112.447942,452.972405 107.166814,472.961316 76.1961282,472.961316 L45.0464214,472.961316 L45.0464214,399.698793 L75.8380856,399.698793 C106.987792,399.698793 112.447942,419.687703 112.447942,436.330054 Z M96.3301872,435.597429 C96.3301872,422.670793 93.2896205,412.886047 74.3307931,412.886047 L59.6645303,412.886047 L59.6645303,414.32234 L59.6645303,456.872518 L59.6645303,458.308811 L74.6885068,458.308811 C93.4684774,458.308811 96.3301872,448.703602 96.3301872,435.597429 Z M159.335957,415.816548 L159.335957,429.452348 L154.815904,429.452348 C144.148579,429.452348 139.266922,434.386355 139.266922,444.972042 L139.266922,472.961316 L124.169946,472.961316 L124.169946,416.444512 L139.266922,416.444512 L139.266922,423.980086 L139.447724,423.980086 C142.702162,418.866661 148.307028,415.816548 155.991118,415.816548 L159.335957,415.816548 Z M219.411225,438.178524 L219.411225,473.524873 L204.263326,473.524873 L204.263326,470.27878 L204.081914,470.27878 C199.818733,473.074027 193.922845,474.426566 188.117662,474.426566 C176.87012,474.426566 162.266458,470.368949 162.266458,455.761529 C162.266458,438.539201 185.940718,436.825985 200.453675,436.825985 C200.907205,436.825985 203.537679,436.825985 204.081914,436.916154 L203.991208,435.473446 C203.628385,430.694476 199.274498,428.259906 192.471549,428.259906 C186.757072,428.259906 180.861183,429.612444 175.690943,433.038876 L166.348227,423.661273 C174.148941,418.160949 182.947421,415.816548 192.652961,415.816548 C208.072978,415.816548 219.411225,422.579242 219.411225,438.178524 Z M204.800852,449.58756 L204.800852,448.142381 C204.267183,448.052058 203.199844,448.052058 202.844064,448.052058 C200.442552,448.052058 198.129984,448.052058 195.105857,448.232705 C192.170674,448.323029 189.057602,448.594 186.30031,449.226265 C180.69678,450.400473 178.384212,452.387593 178.384212,455.27795 C178.384212,459.432839 183.720907,461.239312 189.502327,461.239312 C194.038518,461.239312 204.800852,460.69737 204.800852,455.00698 L204.800852,449.58756 Z M273.402809,416.707694 L288.277996,416.707694 L288.277996,468.255377 C288.277996,484.206899 278.479969,493.474822 259.507425,493.474822 C249.353106,493.474822 241.069319,490.979612 232.785532,485.365389 L242.761706,475.384548 C247.838865,478.86002 253.806755,480.731427 259.507425,480.731427 C268.592869,480.731427 273.402809,476.18658 273.402809,468.790065 L273.402809,465.72075 L273.224663,465.72075 C269.750817,468.305075 264.317366,469.998253 258.616695,469.998253 C239.466006,469.998253 229.667978,458.858923 229.667978,442.907401 C229.667978,428.114369 239.644152,415.816548 258.527622,415.816548 C263.961074,415.816548 270.196182,417.77707 273.224663,420.539624 L273.402809,420.539624 L273.402809,416.707694 Z M275.090742,442.419288 C275.090742,433.655173 270.178623,427.538552 259.705613,427.538552 C249.139921,427.538552 244.320483,433.837759 244.320483,442.419288 C244.320483,451.183403 249.510647,456.843561 259.705613,456.843561 C271.012756,456.843561 275.090742,450.818232 275.090742,442.419288 Z M358.610018,445.121557 C358.610018,461.532362 348.477921,474.426566 328.572384,474.426566 C308.487518,474.426566 298.53475,461.622531 298.53475,445.121557 C298.53475,428.620583 308.487518,415.816548 328.482719,415.816548 C348.65725,415.816548 358.610018,428.530413 358.610018,445.121557 Z M343.957514,445.077155 C343.957514,435.486425 339.287028,429.003802 328.572384,429.003802 C317.766162,429.003802 313.187254,435.397622 313.187254,445.077155 C313.187254,454.667886 317.949318,461.239312 328.572384,461.239312 C339.287028,461.239312 343.957514,454.667886 343.957514,445.077155 Z M424.546288,445.121557 C424.546288,461.532362 414.414191,474.426566 394.508654,474.426566 C374.423788,474.426566 364.47102,461.622531 364.47102,445.121557 C364.47102,428.620583 374.423788,415.816548 394.41899,415.816548 C414.59352,415.816548 424.546288,428.530413 424.546288,445.121557 Z M409.893784,445.077155 C409.893784,435.486425 405.223298,429.003802 394.508654,429.003802 C383.702432,429.003802 379.123524,435.397622 379.123524,445.077155 C379.123524,454.667886 383.885588,461.239312 394.508654,461.239312 C405.223298,461.239312 409.893784,454.667886 409.893784,445.077155 Z M490.482559,438.049434 L490.391564,472.961316 L475.286418,472.961316 L475.286418,439.478053 C475.286418,432.692112 473.557516,428.674121 462.638134,428.674121 C454.266607,428.674121 448.533932,432.692112 448.533932,440.103074 L448.533932,472.961316 L433.337791,472.961316 L433.337791,416.620146 L448.533932,416.620146 L448.533932,421.531025 L448.715921,421.531025 C452.6287,418.048765 458.907345,415.816548 465.276984,415.816548 C480.473125,415.816548 490.482559,424.031108 490.482559,438.049434 Z M554.953579,456.482884 C554.953579,466.130994 546.474143,474.426566 528.883823,474.426566 C518.510045,474.426566 509.128541,470.909965 500.739312,463.696424 L510.391436,453.958144 C515.172395,459.007623 522.118316,461.893039 528.613203,461.893039 C537.273052,461.893039 539.798842,459.187961 539.798842,457.114068 C539.798842,455.310683 538.986981,453.867975 532.401887,452.244928 C531.138992,451.974421 523.471417,449.900528 522.208522,449.63002 C512.466192,447.19545 502.45324,443.228003 502.45324,432.858538 C502.45324,423.030089 511.834744,415.816548 527.981755,415.816548 C538.626154,415.816548 547.015383,418.972472 553.51027,425.28432 L544.128767,434.571754 C540.069462,430.604306 534.206022,428.169736 528.071962,428.169736 C519.592526,428.169736 517.607977,431.055153 517.607977,432.678199 C517.607977,435.0226 520.675007,435.924293 527.620928,437.637508 C528.793616,437.908016 535.468917,439.711401 536.731812,440.072078 C548.729312,443.047664 554.953579,447.916804 554.953579,456.482884 Z M155.102836,178.212766 L255.628658,178.212766 C276.055597,178.212766 292.619486,194.4672 292.619486,214.51722 L292.619486,288.226086 L292.619486,309.616587 C292.619486,311.304655 291.252606,312.674468 289.564538,312.674468 C283.86676,299.746304 272.698527,285.313399 253.884859,276.001895 C274.285399,276.001895 283.453176,275.993858 283.453176,276.001895 L283.453176,275.215883 C283.453176,275.215883 278.745884,269.890532 262.148784,269.890532 L237.665624,269.890532 C237.665624,252.094691 232.092507,239.902766 221.073869,233.217959 L246.780602,233.217959 C265.226152,233.217959 277.341813,239.329321 283.453176,246.971824 L283.453176,245.44215 C275.815073,233.050766 266.324642,227.106597 246.780602,227.106597 L194.82889,227.106597 C194.82889,203.277124 175.780565,184.470789 152.046421,181.267714 C152.046421,179.581113 153.414768,178.212766 155.102836,178.212766 Z M292.619486,288.226086 C292.619486,286.111235 292.748547,284.244241 292.619486,282.620704 L292.619486,288.226086 Z M444.478237,178.212766 C446.166305,178.212766 447.534651,179.581113 447.534651,181.267714 C423.800508,184.470789 404.752183,203.277124 404.752183,227.106597 L352.80047,227.106597 C333.256431,227.106597 323.766,233.050766 316.127897,245.44215 L316.127897,246.971824 C322.239259,239.329321 334.354921,233.217959 352.80047,233.217959 L378.507204,233.217959 C367.488566,239.902766 361.915449,252.094691 361.915449,269.890532 L337.432289,269.890532 C320.835189,269.890532 316.127897,275.215883 316.127897,275.215883 L316.127897,276.001895 C316.127897,275.993858 325.295674,276.001895 345.696213,276.001895 C326.882545,285.313399 315.714313,299.746304 310.016535,312.674468 C308.328467,312.674468 306.961587,311.304655 306.961587,309.616587 L306.961587,288.226086 L306.961587,214.51722 C306.961587,194.4672 323.525476,178.212766 343.952415,178.212766 L444.478237,178.212766 Z M306.961587,288.226086 C306.961587,286.111235 306.832525,284.244241 306.961587,282.620704 L306.961587,288.226086 Z M155.102836,164.98688 C153.414768,164.98688 152.046421,163.618534 152.046421,161.931933 C175.780565,158.728857 194.82889,139.922522 194.82889,116.093049 L246.780602,116.093049 C266.324642,116.093049 275.815073,110.14888 283.453176,97.7574958 L283.453176,96.227822 C277.341813,103.870325 265.226152,109.981687 246.780602,109.981687 L221.073869,109.981687 C232.092507,103.29688 237.665624,91.1049547 237.665624,73.3091137 L262.148784,73.3091137 C278.745884,73.3091137 283.453176,67.9837631 283.453176,67.9837631 L283.453176,67.1977514 C283.453176,67.2057885 274.285399,67.1977514 253.884859,67.1977514 C272.698527,57.886247 283.86676,43.4533419 289.564538,30.5251782 C291.252606,30.5251782 292.619486,31.8949915 292.619486,33.5830592 L292.619486,54.9735603 L292.619486,128.682426 C292.619486,148.732446 276.055597,164.98688 255.628658,164.98688 L155.102836,164.98688 Z M292.619486,54.9735603 C292.619486,57.0884114 292.748547,58.9554054 292.619486,60.5789423 L292.619486,54.9735603 Z M444.478237,164.98688 L343.952415,164.98688 C323.525476,164.98688 306.961587,148.732446 306.961587,128.682426 L306.961587,54.9735603 L306.961587,33.5830592 C306.961587,31.8949915 308.328467,30.5251782 310.016535,30.5251782 C315.714313,43.4533419 326.882545,57.886247 345.696213,67.1977514 C325.295674,67.1977514 316.127897,67.2057885 316.127897,67.1977514 L316.127897,67.9837631 C316.127897,67.9837631 320.835189,73.3091137 337.432289,73.3091137 L361.915449,73.3091137 C361.915449,91.1049547 367.488566,103.29688 378.507204,109.981687 L352.80047,109.981687 C334.354921,109.981687 322.239259,103.870325 316.127897,96.227822 L316.127897,97.7574958 C323.766,110.14888 333.256431,116.093049 352.80047,116.093049 L404.752183,116.093049 C404.752183,139.922522 423.800508,158.728857 447.534651,161.931933 C447.534651,163.618534 446.166305,164.98688 444.478237,164.98688 Z M306.961587,54.9735603 C306.961587,57.0884114 306.832525,58.9554054 306.961587,60.5789423 L306.961587,54.9735603 Z M280.47663,172.02945 L300.042861,152.454674 L319.616213,172.02945 L300.042861,191.595682 L280.47663,172.02945 Z" id="Combined-Shape" fill="#FFFFFF"></path>
    </g>
</svg>