<?xml version="1.0" encoding="UTF-8"?>
<svg width="600px" height="524px" viewBox="0 0 600 524" version="1.1" xmlns="http://www.w3.org/2000/svg" xmlns:xlink="http://www.w3.org/1999/xlink">
    <!-- Generator: Sketch 53 (72520) - https://sketchapp.com -->
    <title>v02-color</title>
    <desc>Created with Sketch.</desc>
    <defs>
        <radialGradient cx="110.229492%" cy="-23.2003348%" fx="110.229492%" fy="-23.2003348%" r="202.63179%" gradientTransform="translate(1.102295,-0.232003),scale(0.777778,1.000000),rotate(134.380056),translate(-1.102295,0.232003)" id="radialGradient-1">
            <stop stop-color="#E61739" offset="0%"></stop>
            <stop stop-color="#0D2F80" offset="100%"></stop>
        </radialGradient>
        <radialGradient cx="106.373132%" cy="23.8802083%" fx="106.373132%" fy="23.8802083%" r="238.026275%" gradientTransform="translate(1.063731,0.238802),scale(0.652174,1.000000),rotate(152.903701),translate(-1.063731,-0.238802)" id="radialGradient-2">
            <stop stop-color="#E61739" offset="0%"></stop>
            <stop stop-color="#0D2F80" offset="100%"></stop>
        </radialGradient>
        <radialGradient cx="110.229492%" cy="-23.2003348%" fx="110.229492%" fy="-23.2003348%" r="290.610446%" gradientTransform="translate(1.102295,-0.232003),scale(0.437500,1.000000),rotate(150.109444),translate(-1.102295,0.232003)" id="radialGradient-3">
            <stop stop-color="#E61739" offset="0%"></stop>
            <stop stop-color="#0D2F80" offset="100%"></stop>
        </radialGradient>
        <radialGradient cx="50%" cy="50%" fx="50%" fy="50%" r="98.004515%" gradientTransform="translate(0.500000,0.500000),scale(0.997667,1.000000),rotate(90.000000),translate(-0.500000,-0.500000)" id="radialGradient-4">
            <stop stop-color="#E61739" offset="0%"></stop>
            <stop stop-color="#800D7A" offset="100%"></stop>
        </radialGradient>
        <linearGradient x1="0%" y1="48.3088915%" x2="598.989304%" y2="73.4547733%" id="linearGradient-5">
            <stop stop-color="#BA1B47" offset="0%"></stop>
            <stop stop-color="#000000" offset="100%"></stop>
        </linearGradient>
    </defs>
    <g id="v02-color" stroke="none" stroke-width="1" fill="none" fill-rule="evenodd">
        <g id="Group-3" transform="translate(45.000000, 33.500000)">
            <g id="Group-5-Copy-9" transform="translate(106.500000, 0.000000)">
                <g id="Group-4-Copy-4" transform="translate(225.654492, 68.000000) scale(-1, 1) translate(-225.654492, -68.000000) translate(154.654492, 0.000000)">
                    <path d="M141.431021,43.3067369 L86.0884475,43.3067369 C115.168022,35.4451336 131.133483,16.6503334 138.356433,0.262513102 C140.054481,0.262513102 141.431021,1.63905277 141.431021,3.33710051 L141.431021,43.3067369 Z" id="Fill-20" fill="url(#radialGradient-1)"></path>
                    <path d="M-7.10542736e-14,132.469772 C23.8789914,129.246141 43.0442237,110.325221 43.0442237,86.3509606 L92.2376223,86.3509606 L141.431021,43.3067369 L141.431021,99.015849 C141.431021,119.187419 124.765601,135.544359 104.213612,135.544359 L3.07458741,135.544359 C1.37653967,135.544359 -7.08463227e-14,134.167819 -7.10542736e-14,132.469772 Z" id="Fill-22" fill="url(#radialGradient-2)"></path>
                    <path d="M86.1419453,43.3067369 C86.1419453,72.1428886 71.5970355,86.3509606 43.0442237,86.3509606 L93.4205331,86.3509606 C119.933427,86.3509606 141.431021,72.1428886 141.431021,43.3067369 L86.1419453,43.3067369 Z" id="Fill-24" fill="url(#radialGradient-3)"></path>
                </g>
                <g id="Group-4-Copy-3" transform="translate(1.494100, 0.000000)">
                    <path d="M141.431021,43.3067369 L86.0884475,43.3067369 C115.168022,35.4451336 131.133483,16.6503334 138.356433,0.262513102 C140.054481,0.262513102 141.431021,1.63905277 141.431021,3.33710051 L141.431021,43.3067369 Z" id="Fill-20" fill="url(#radialGradient-1)"></path>
                    <path d="M-4.40536496e-13,132.469772 C23.8789914,129.246141 43.0442237,110.325221 43.0442237,86.3509606 L92.2376223,86.3509606 L141.431021,43.3067369 L141.431021,99.015849 C141.431021,119.187419 124.765601,135.544359 104.213612,135.544359 L3.07458741,135.544359 C1.37653967,135.544359 -4.40328545e-13,134.167819 -4.40536496e-13,132.469772 Z" id="Fill-22" fill="url(#radialGradient-2)"></path>
                    <path d="M86.1419453,43.3067369 C86.1419453,72.1428886 71.5970355,86.3509606 43.0442237,86.3509606 L93.4205331,86.3509606 C119.933427,86.3509606 141.431021,72.1428886 141.431021,43.3067369 L86.1419453,43.3067369 Z" id="Fill-24" fill="url(#radialGradient-3)"></path>
                </g>
                <g id="Group-2-Copy" transform="translate(148.654492, 214.862042) scale(-1, -1) translate(-148.654492, -214.862042) translate(0.654492, 146.862042)">
                    <g id="Group-4-Copy-3">
                        <path d="M141.431021,43.0442237 L86.0884475,43.0442237 C115.168022,35.1826205 131.133483,16.3878203 138.356433,0 C140.054481,2.70441241e-15 141.431021,1.37653967 141.431021,3.07458741 L141.431021,43.0442237 Z" id="Fill-20" fill="url(#radialGradient-1)"></path>
                        <path d="M0,132.207259 C23.8789914,128.983628 43.0442237,110.062707 43.0442237,86.0884475 L92.2376223,86.0884475 L141.431021,43.0442237 L141.431021,98.7533359 C141.431021,118.924906 124.765601,135.281846 104.213612,135.281846 L3.07458741,135.281846 C1.37653967,135.281846 2.07950873e-16,133.905306 0,132.207259 Z" id="Fill-22" fill="url(#radialGradient-2)"></path>
                        <path d="M86.1419453,43.0442237 C86.1419453,71.8803755 71.5970355,86.0884475 43.0442237,86.0884475 L93.4205331,86.0884475 C119.933427,86.0884475 141.431021,71.8803755 141.431021,43.0442237 L86.1419453,43.0442237 Z" id="Fill-24" fill="url(#radialGradient-3)"></path>
                    </g>
                    <g id="Group-4-Copy-4" transform="translate(224.160391, 68.000000) scale(-1, 1) translate(-224.160391, -68.000000) translate(153.160391, 0.000000)">
                        <path d="M141.431021,43.0442237 L86.0884475,43.0442237 C115.168022,35.1826205 131.133483,16.3878203 138.356433,0 C140.054481,-3.11926309e-16 141.431021,1.37653967 141.431021,3.07458741 L141.431021,43.0442237 Z" id="Fill-20" fill="url(#radialGradient-1)"></path>
                        <path d="M0,132.207259 C23.8789914,128.983628 43.0442237,110.062707 43.0442237,86.0884475 L92.2376223,86.0884475 L141.431021,43.0442237 L141.431021,98.7533359 C141.431021,118.924906 124.765601,135.281846 104.213612,135.281846 L3.07458741,135.281846 C1.37653967,135.281846 2.07950873e-16,133.905306 0,132.207259 Z" id="Fill-22" fill="url(#radialGradient-2)"></path>
                        <path d="M86.1419453,43.0442237 C86.1419453,71.8803755 71.5970355,86.0884475 43.0442237,86.0884475 L93.4205331,86.0884475 C119.933427,86.0884475 141.431021,71.8803755 141.431021,43.0442237 L86.1419453,43.0442237 Z" id="Fill-24" fill="url(#radialGradient-3)"></path>
                    </g>
                </g>
                <polygon id="Fill-26-Copy" fill="url(#radialGradient-4)" points="166.995555 141.503307 148.496685 159.952406 130.004445 141.503307 148.496685 123.047594"></polygon>
            </g>
            <g id="Group-33-Copy-30" transform="translate(0.000000, 360.747861)" fill="url(#linearGradient-5)">
                <g id="Group" transform="translate(0.000000, 0.173615)">
                    <path d="M67.4015208,36.6312613 C67.4015208,53.2736121 62.1203923,73.2625226 31.1497068,73.2625226 L1.69819714e-12,73.2625226 L1.69819714e-12,-8.95283847e-13 L30.7916642,-8.95283847e-13 C61.941371,-8.95283847e-13 67.4015208,19.9889105 67.4015208,36.6312613 Z M51.2837658,35.8986361 C51.2837658,22.9719997 48.2431992,13.1872541 29.2843717,13.1872541 L14.618109,13.1872541 L14.618109,14.623547 L14.618109,57.1737251 L14.618109,58.6100181 L29.6420854,58.6100181 C48.422056,58.6100181 51.2837658,49.0048091 51.2837658,35.8986361 Z M114.289535,16.117755 L114.289535,29.7535551 L109.769482,29.7535551 C99.1021578,29.7535551 94.2205008,34.6875617 94.2205008,45.2732487 L94.2205008,73.2625226 L79.1235244,73.2625226 L79.1235244,16.7457195 L94.2205008,16.7457195 L94.2205008,24.2812932 L94.4013029,24.2812932 C97.6557409,19.1678682 103.260606,16.117755 110.944696,16.117755 L114.289535,16.117755 Z M174.364804,38.4797311 L174.364804,73.8260805 L159.216905,73.8260805 L159.216905,70.5799872 L159.035493,70.5799872 C154.772312,73.3752342 148.876423,74.727773 143.071241,74.727773 C131.823699,74.727773 117.220036,70.6701564 117.220036,56.0627365 C117.220036,38.8404081 140.894297,37.1271922 155.407254,37.1271922 C155.860784,37.1271922 158.491257,37.1271922 159.035493,37.2173615 L158.944787,35.7746533 C158.581963,30.9956826 154.228076,28.5611127 147.425128,28.5611127 C141.710651,28.5611127 135.814762,29.9136515 130.644521,33.3400834 L121.301805,23.9624805 C129.10252,18.4621557 137.901,16.117755 147.60654,16.117755 C163.026556,16.117755 174.364804,22.8804494 174.364804,38.4797311 Z M159.754431,49.8887671 L159.754431,48.4435886 C159.220762,48.3532649 158.153423,48.3532649 157.797643,48.3532649 C155.39613,48.3532649 153.083562,48.3532649 150.059435,48.5339122 C147.124253,48.6242359 144.011181,48.8952069 141.253889,49.5274725 C135.650359,50.70168 133.337791,52.6888005 133.337791,55.5791576 C133.337791,59.7340458 138.674486,61.540519 144.455906,61.540519 C148.992096,61.540519 159.754431,60.998577 159.754431,55.3081866 L159.754431,49.8887671 Z M228.356388,17.0089014 L243.231575,17.0089014 L243.231575,68.5565837 C243.231575,84.5081056 233.433548,93.7760289 214.461004,93.7760289 C204.306685,93.7760289 196.022898,91.2808188 187.739111,85.666596 L197.715284,75.6857555 C202.792444,79.1612268 208.760333,81.0326343 214.461004,81.0326343 C223.546447,81.0326343 228.356388,76.4877873 228.356388,69.0912716 L228.356388,66.0219575 L228.178242,66.0219575 C224.704396,68.6062823 219.270945,70.2994606 213.570274,70.2994606 C194.419584,70.2994606 184.621557,59.1601296 184.621557,43.2086078 C184.621557,28.4155763 194.59773,16.117755 213.481201,16.117755 C218.914653,16.117755 225.149761,18.0782772 228.178242,20.8408313 L228.356388,20.8408313 L228.356388,17.0089014 Z M230.044321,42.7204953 C230.044321,33.9563804 225.132201,27.8397586 214.659191,27.8397586 C204.0935,27.8397586 199.274061,34.1389661 199.274061,42.7204953 C199.274061,51.4846101 204.464226,57.1447676 214.659191,57.1447676 C225.966335,57.1447676 230.044321,51.1194387 230.044321,42.7204953 Z M313.563597,45.422764 C313.563597,61.8335691 303.431499,74.727773 283.525962,74.727773 C263.441097,74.727773 253.488328,61.9237383 253.488328,45.422764 C253.488328,28.9217897 263.441097,16.117755 283.436298,16.117755 C303.610828,16.117755 313.563597,28.8316204 313.563597,45.422764 Z M298.911092,45.3783625 C298.911092,35.7876322 294.240606,29.305009 283.525962,29.305009 C272.71974,29.305009 268.140833,35.6988292 268.140833,45.3783625 C268.140833,54.9690927 272.902897,61.540519 283.525962,61.540519 C294.240606,61.540519 298.911092,54.9690927 298.911092,45.3783625 Z M379.499867,45.422764 C379.499867,61.8335691 369.36777,74.727773 349.462233,74.727773 C329.377367,74.727773 319.424599,61.9237383 319.424599,45.422764 C319.424599,28.9217897 329.377367,16.117755 349.372568,16.117755 C369.547099,16.117755 379.499867,28.8316204 379.499867,45.422764 Z M364.847363,45.3783625 C364.847363,35.7876322 360.176877,29.305009 349.462233,29.305009 C338.656011,29.305009 334.077103,35.6988292 334.077103,45.3783625 C334.077103,54.9690927 338.839167,61.540519 349.462233,61.540519 C360.176877,61.540519 364.847363,54.9690927 364.847363,45.3783625 Z M445.436137,38.3506411 L445.345143,73.2625226 L430.239997,73.2625226 L430.239997,39.7792603 C430.239997,32.9933192 428.511095,28.9753277 417.591712,28.9753277 C409.220186,28.9753277 403.48751,32.9933192 403.48751,40.4042812 L403.48751,73.2625226 L388.29137,73.2625226 L388.29137,16.9213533 L403.48751,16.9213533 L403.48751,21.8322317 L403.6695,21.8322317 C407.582279,18.3499725 413.860923,16.117755 420.230563,16.117755 C435.426704,16.117755 445.436137,24.3323153 445.436137,38.3506411 Z M509.907157,56.7840906 C509.907157,66.4322013 501.427721,74.727773 483.837402,74.727773 C473.463624,74.727773 464.08212,71.211172 455.692891,63.9976313 L465.345015,54.2593513 C470.125973,59.3088298 477.071894,62.1942461 483.566781,62.1942461 C492.226631,62.1942461 494.75242,59.4891683 494.75242,57.4152754 C494.75242,55.6118902 493.94056,54.1691821 487.355466,52.5461354 C486.092571,52.2756277 478.424996,50.2017347 477.162101,49.9312269 C467.41977,47.496657 457.406819,43.5292096 457.406819,33.1597448 C457.406819,23.3312957 466.788323,16.117755 482.935334,16.117755 C493.579733,16.117755 501.968962,19.273679 508.463849,25.5855271 L499.082345,34.8729608 C495.023041,30.9055134 489.159601,28.4709434 483.025541,28.4709434 C474.546105,28.4709434 472.561556,31.3563597 472.561556,32.9794063 C472.561556,35.323807 475.628586,36.2254996 482.574507,37.9387155 C483.747195,38.2092233 490.422496,40.0126085 491.68539,40.3732855 C503.68289,43.3488711 509.907157,48.218011 509.907157,56.7840906 Z" id="Combined-Shape"></path>
                </g>
            </g>
        </g>
    </g>
</svg>